<?xml version="1.0" encoding="UTF-8" standalone="no"?>
<!-- Created with Inkscape (http://www.inkscape.org/) -->

<svg
   width="210mm"
   height="297mm"
   viewBox="0 0 210 297"
   version="1.1"
   id="svg5"
   xml:space="preserve"
   inkscape:version="1.2 (dc2aeda, 2022-05-15)"
   sodipodi:docname="Standard_Icon.svg"
   xmlns:inkscape="http://www.inkscape.org/namespaces/inkscape"
   xmlns:sodipodi="http://sodipodi.sourceforge.net/DTD/sodipodi-0.dtd"
   xmlns="http://www.w3.org/2000/svg"
   xmlns:svg="http://www.w3.org/2000/svg"><sodipodi:namedview
     id="namedview7"
     pagecolor="#505050"
     bordercolor="#eeeeee"
     borderopacity="1"
     inkscape:showpageshadow="0"
     inkscape:pageopacity="0"
     inkscape:pagecheckerboard="0"
     inkscape:deskcolor="#505050"
     inkscape:document-units="mm"
     showgrid="false"
     inkscape:zoom="0.34516258"
     inkscape:cx="259.2981"
     inkscape:cy="133.27053"
     inkscape:window-width="1344"
     inkscape:window-height="456"
     inkscape:window-x="0"
     inkscape:window-y="25"
     inkscape:window-maximized="0"
     inkscape:current-layer="layer1" /><defs
     id="defs2" /><g
     inkscape:label="Ebene 1"
     inkscape:groupmode="layer"
     id="layer1"><g
       id="g983"
       transform="matrix(1.7112304,0,0,1.6348611,-67.088285,50.982155)"><path
         style="fill:none;fill-opacity:1;stroke-width:0.13819"
         d="m 46.312238,154.37034 -3.111666,-1.65807 -1.362866,-0.92868 -1.362865,-0.92866 -1.203107,-1.10678 -1.203105,-1.10677 -0.85261,-1.02112 -0.852609,-1.02112 -0.595773,-0.88741 -0.595772,-0.88741 -0.562622,-1.02305 -0.562623,-1.02305 -0.511345,-1.2535 -0.511344,-1.25348 -0.370031,-1.5174 -0.37003,-1.51739 -0.149766,-1.45141 -0.149766,-1.45142 V 110.38526 86.436899 l 0.149766,-1.451415 0.149766,-1.451416 0.37003,-1.517389 0.370031,-1.517389 0.511344,-1.253496 0.511345,-1.253495 0.562623,-1.023048 0.562622,-1.023048 0.59563,-0.890182 0.595631,-0.890182 0.957973,-1.121549 0.957972,-1.121548 1.136316,-1.026588 1.136316,-1.026588 1.12801,-0.782844 1.12801,-0.782847 1.426618,-0.779793 1.426618,-0.779792 22.143493,-11.656117 22.143492,-11.656119 1.592016,-0.6252 1.592016,-0.625201 1.302558,-0.341832 1.302559,-0.341833 1.302555,-0.223232 1.302561,-0.223232 2.966941,0.0014 2.96694,0.0014 1.33667,0.231021 1.33669,0.231021 1.26844,0.332602 1.26843,0.332602 1.59202,0.626092 1.59201,0.626093 22.98761,12.105521 22.9876,12.10552 0.60317,0.343574 0.60318,0.343573 1.21921,0.863842 1.2192,0.863842 1.03275,0.941531 1.03273,0.941532 0.94969,1.111533 0.94968,1.111533 0.59563,0.890181 0.59563,0.890183 0.56262,1.023048 0.56263,1.023048 0.51134,1.253495 0.51134,1.253495 0.37003,1.517389 0.37003,1.51739 0.14977,1.451415 0.14976,1.451416 v 23.948354 23.94836 l -0.15024,1.44444 -0.15022,1.44444 -0.29885,1.25744 -0.29882,1.25745 -0.42606,1.19055 -0.42606,1.19055 -0.69323,1.31947 -0.69324,1.31947 -0.62103,0.92362 -0.62103,0.92363 -0.95798,1.12155 -0.95796,1.12155 -1.15158,1.04037 -1.15156,1.04036 -1.30919,0.89199 -1.30918,0.89198 -3.13544,1.6632 -3.13543,1.66321 h -0.0588 -0.0588 l -1.79891,-0.94251 -1.7989,-0.94252 -2.96694,-1.35302 -2.96694,-1.35302 -1.73674,-0.68632 -1.73674,-0.68631 -1.73675,-0.6321 -1.73675,-0.6321 -2.38802,-0.74956 -2.38803,-0.74956 -2.69351,-0.70587 -2.6935,-0.70587 -2.60428,-0.53687 -2.60427,-0.53685 -2.95176,-0.45208 -2.95174,-0.45207 -2.17093,-0.21364 -2.17093,-0.21363 -0.58625,-0.0657 -0.58627,-0.0656 -0.25643,-4.69239 -0.25644,-4.69238 0.0467,-0.0405 0.0467,-0.0406 2.67748,1.64239 2.67748,1.64238 2.31566,1.27392 2.31566,1.27392 3.06158,1.41759 3.06158,1.41757 0.8338,0.221 0.83379,0.22098 1.09776,-0.0595 1.09777,-0.0595 0.83445,-0.37444 0.83446,-0.37445 0.72947,-0.70319 0.72947,-0.70319 0.28942,-0.59652 0.28943,-0.59652 0.13572,-0.75603 0.13572,-0.75604 -0.15505,-0.78336 -0.15506,-0.78338 -0.34153,-0.60207 -0.34153,-0.60207 -1.32179,-1.45142 -1.32179,-1.45142 -1.98911,-2.37504 -1.98912,-2.37505 -0.32226,-0.42379 -0.32225,-0.4238 0.69339,0.28761 0.69338,0.28761 1.37493,0.004 1.37492,0.004 0.82757,-0.35362 0.82757,-0.35362 0.70236,-0.59896 0.70236,-0.59896 0.39073,-0.70406 0.39073,-0.70406 0.14077,-0.78437 0.14078,-0.78438 -0.15505,-0.78337 -0.15506,-0.78337 -0.33701,-0.60207 -0.33701,-0.60208 -1.54596,-1.7153 -1.54597,-1.71532 -1.96413,-2.37504 -1.96413,-2.37504 -0.14539,-0.17154 -0.14539,-0.17153 0.78356,0.29492 0.78356,0.29493 1.3056,0.009 1.3056,0.009 0.96444,-0.43286 0.96444,-0.43286 0.64273,-0.65174 0.64274,-0.65173 0.31928,-0.61927 0.31929,-0.61926 0.13069,-0.73988 0.1307,-0.73988 -0.13252,-0.74233 -0.13252,-0.74232 -0.35831,-0.64039 -0.35831,-0.6404 -1.54716,-1.71531 -1.54718,-1.7153 -2.49843,-3.034783 -2.49844,-3.034773 -1.91709,-2.506992 -1.9171,-2.506991 -2.49693,-3.430619 -2.49694,-3.430619 -2.5286,-3.62854 -2.5286,-3.62854 -2.30416,-3.410931 -2.30416,-3.410933 -0.59979,-0.571166 -0.59979,-0.571167 -0.71188,-0.328882 -0.71189,-0.328881 -0.89544,-0.148034 -0.89543,-0.148034 -0.89544,0.148034 -0.895437,0.148034 -0.709245,0.327661 -0.709246,0.327659 -0.602431,0.55748 -0.602431,0.557479 -1.946285,2.898052 -1.946283,2.898055 -3.031257,4.354247 -3.031255,4.354248 -2.703371,3.694512 -2.70337,3.694514 -1.426093,1.847255 -1.426093,1.84725 -1.370864,1.715316 -1.370865,1.715306 -1.626671,1.913236 -1.626673,1.913227 -1.247737,1.38541 -1.247739,1.38541 -0.300249,0.58234 -0.30025,0.58235 -0.130697,0.73987 -0.130696,0.73989 0.13954,0.78165 0.139541,0.78165 0.39073,0.70406 0.39073,0.70406 0.70236,0.59896 0.70236,0.59895 0.827567,0.35155 0.827569,0.35155 1.302558,-0.006 1.302559,-0.006 0.768854,-0.27914 0.768855,-0.27915 -0.130691,0.15539 -0.13069,0.15538 -1.964124,2.37504 -1.964124,2.37505 -1.54597,1.71531 -1.54597,1.71531 -0.337008,0.60207 -0.337007,0.60208 -0.162852,0.81876 -0.162852,0.81876 0.152869,0.75629 0.152872,0.75629 0.362288,0.67617 0.362288,0.67616 0.726504,0.61955 0.726505,0.61954 0.827567,0.35363 0.827569,0.35362 1.374922,-0.01 1.374923,-0.01 0.699939,-0.28761 0.699939,-0.28761 -0.547056,0.69291 -0.547056,0.6929 -1.60017,1.90878 -1.60017,1.90877 -1.491617,1.65379 -1.491617,1.65379 -0.342398,0.60208 -0.342397,0.60207 -0.162852,0.81877 -0.162852,0.81876 0.147996,0.72988 0.147997,0.72988 0.284948,0.58728 0.284946,0.58728 0.729467,0.70319 0.729468,0.70319 0.834456,0.37445 0.834455,0.37444 1.097765,0.0595 1.097762,0.0595 0.833796,-0.22099 0.833797,-0.22099 3.061581,-1.41973 3.06158,-1.41973 2.243296,-1.22912 2.243294,-1.22912 2.879385,-1.76685 2.879385,-1.76685 0.04656,0.0425 0.04656,0.0424 -0.27843,4.74349 -0.278428,4.74348 -0.0062,0.0235 -0.0062,0.0235 -0.759825,0.074 -0.759826,0.074 -2.026202,0.2058 -2.026202,0.20581 -2.677481,0.39534 -2.677481,0.39534 -2.904871,0.5864 -2.904872,0.58638 -2.739549,0.71902 -2.739547,0.71902 -2.315659,0.72084 -2.31566,0.72084 -2.17093,0.79415 -2.170931,0.79415 -1.519651,0.61352 -1.519652,0.61351 -2.82221,1.29168 -2.822209,1.29167 -1.798909,0.94221 -1.798908,0.94222 -0.08256,-0.005 -0.08256,-0.005 z m 51.32333,-4.57128 -0.255409,-0.17027 0.662718,-11.73794 0.66271,-11.73793 -7.21e-4,-0.6277 -7.2e-4,-0.62769 -1.700562,1.19461 -1.700565,1.1946 -2.532752,1.68675 -2.532752,1.68675 -2.441173,1.4861 -2.441171,1.48611 -2.407241,1.31496 -2.407239,1.31495 -2.759173,1.25813 -2.759172,1.25812 -0.333426,-0.0453 -0.333426,-0.0453 1.428217,-0.88138 1.42822,-0.88138 1.592016,-1.15892 1.592015,-1.15892 1.818692,-1.65422 1.818691,-1.65421 1.210223,-1.38544 1.210223,-1.38544 1.03769,-1.45142 1.037692,-1.45141 0.742256,-1.25967 0.742256,-1.25966 0.650286,-1.41505 0.650285,-1.41505 0.572824,-1.63355 0.572826,-1.63356 0.2908,-1.36545 0.2908,-1.36545 0.07445,-0.50646 0.07445,-0.50646 -0.211027,0.0738 -0.211028,0.0738 -1.916697,1.23639 -1.916698,1.23639 -1.528147,0.93056 -1.528146,0.93055 -2.596622,1.42747 -2.596621,1.42746 -2.811552,1.29143 -2.811552,1.29143 H 74.79839 74.534457 l 0.0037,-0.099 0.0037,-0.099 0.68373,-0.42493 0.683729,-0.42495 1.541552,-1.09392 1.541552,-1.09393 1.703802,-1.38396 1.7038,-1.38396 1.584229,-1.58337 1.58423,-1.58337 1.272965,-1.53977 1.272967,-1.53978 0.9759,-1.49499 0.975901,-1.49501 0.629659,-1.23238 0.629658,-1.23238 0.573859,-1.53851 0.57386,-1.5385 0.281276,-1.2535 0.281276,-1.253494 0.102986,-1.088562 0.102985,-1.088563 H 93.077176 92.91259 l -1.337571,0.882587 -1.337573,0.882577 -2.532752,1.540775 -2.532752,1.54078 -1.809109,0.98956 -1.809109,0.98955 -1.885457,0.92662 -1.885458,0.9266 -1.428261,0.60848 -1.428263,0.60849 h -0.18741 -0.187411 l -0.07793,-0.11495 -0.07793,-0.11496 1.625223,-1.1265 1.625222,-1.12649 1.445496,-1.10061 1.445496,-1.1006 2.084744,-1.84726 2.084745,-1.847252 1.655582,-1.715316 1.655581,-1.715306 1.483676,-1.781286 1.483678,-1.78128 1.013277,-1.385442 1.013277,-1.385443 0.987966,-1.517389 0.987966,-1.51739 1.265824,-2.30907 1.265822,-2.30907 0.939811,-2.177124 0.939812,-2.177124 0.527081,-1.4991 0.527087,-1.4991 0.42811,-1.598342 0.42811,-1.598341 v -0.238937 -0.23886 l 0.26985,0.131666 0.26985,0.131665 2.00038,2.940742 2.00039,2.940742 2.20607,3.185732 2.20607,3.185731 2.20107,3.081746 2.20106,3.081746 2.03443,2.704911 2.03441,2.704912 2.0093,2.543781 2.00931,2.543781 1.8035,2.117977 1.80348,2.11798 1.07991,1.18951 1.07991,1.18952 v 0.30782 0.30782 l -0.22742,0.20734 -0.22744,0.20734 h -0.21741 -0.21742 l -2.21332,-0.992 -2.21332,-0.99201 -2.22642,-1.16398 -2.22643,-1.16399 -1.88147,-1.09374 -1.88147,-1.09374 -2.49994,-1.599312 -2.49992,-1.599314 -0.30865,-0.194686 -0.30866,-0.194676 0.19128,0.326626 0.19128,0.326625 2.73062,3.813717 2.73061,3.81372 2.26348,2.98154 2.26349,2.98155 1.71815,2.14115 1.71817,2.14114 1.48992,1.75129 1.48994,1.75129 1.18839,1.31036 1.1884,1.31036 -0.0434,0.40256 -0.0434,0.40257 -0.37719,0.12014 -0.37717,0.12014 -2.37279,-1.06231 -2.37267,-1.06231 -2.09856,-1.10295 -2.09856,-1.10295 -1.92274,-1.11922 -1.92272,-1.11922 -2.70859,-1.73321 -2.7086,-1.73322 -0.044,0.036 -0.044,0.036 1.62346,2.29095 1.62345,2.29094 1.88166,2.57296 1.88165,2.57297 1.6648,2.17712 1.6648,2.17713 1.52406,1.91322 1.52407,1.91324 1.61899,1.91322 1.61898,1.91324 1.24696,1.38424 1.24696,1.38424 v 0.33766 0.33767 l -0.17368,0.15834 -0.17368,0.15833 h -0.31835 -0.31835 l -2.72818,-1.24617 -2.7282,-1.24617 -2.40724,-1.31452 -2.40724,-1.31453 -2.44117,-1.48674 -2.44117,-1.48675 -2.09857,-1.3826 -2.09856,-1.3826 -1.8604,-1.30868 -1.86042,-1.30867 -0.19586,-0.0685 -0.19585,-0.0685 0.0787,1.10053 0.0787,1.10054 0.62393,11.08353 0.62393,11.08355 -0.22458,0.2309 -0.22458,0.23091 h -3.56813 -3.568119 z M 25.349427,135.71907 v -0.32987 l 0.07301,0.16493 0.07299,0.16494 -0.07299,0.16493 -0.07301,0.16494 z m 151.820423,0 v -0.32987 l 0.073,0.16493 0.073,0.16494 -0.073,0.16493 -0.073,0.16494 z M 25.349427,85.051457 V 84.72159 l 0.07301,0.164934 0.07299,0.164933 -0.07299,0.164934 -0.07301,0.164934 z m 151.820423,0 V 84.72159 l 0.073,0.164934 0.073,0.164933 -0.073,0.164934 -0.073,0.164934 z m -76.4758,-50.236431 0.6151,-0.05051 0.61509,0.05051 0.6151,0.05051 h -1.23019 -1.2302 z"
         id="path3091" /><path
         style="fill:#a3a3a3;fill-opacity:1;stroke-width:0.13819"
         d="m 40.070442,150.53011 -0.198631,-0.23092 0.253275,0.1811 0.253276,0.18108 v 0.0499 0.0499 h -0.05465 -0.05465 z m 122.386588,-0.033 0.26195,-0.26389 h 0.0724 0.0724 l -0.26196,0.26389 -0.26195,0.2639 h -0.0724 -0.0724 z m -124.046257,-1.4844 -0.275706,-0.29687 0.325639,0.25135 0.32564,0.25136 v 0.0455 0.0455 h -0.04994 -0.04993 z m 125.421177,0.24707 v -0.0499 l 0.25327,-0.18109 0.25328,-0.18109 -0.19863,0.23091 -0.19863,0.23091 h -0.0547 -0.0547 z m -58.44219,-0.67589 0.006,-0.39584 0.0667,0.23341 0.0668,0.23342 -0.0721,0.16242 -0.0721,0.16243 0.006,-0.39584 z m -7.960073,-0.92363 0.0055,-0.39584 0.06668,0.23342 0.06668,0.23341 -0.07213,0.16243 -0.07213,0.16242 0.0055,-0.39584 z m 7.815353,-1.71531 0.006,-0.39585 0.0668,0.23342 0.0667,0.23343 -0.0721,0.16242 -0.072,0.16242 0.006,-0.39584 z m -29.58001,0.10778 0.189956,-0.0693 0.08744,0.0797 0.08744,0.0797 -0.277396,-0.0104 -0.277397,-0.0104 z m 51.08923,0 0.18996,-0.0693 0.0875,0.0797 0.0875,0.0797 -0.27739,-0.0104 -0.27739,-0.0104 0.18995,-0.0693 z m -49.352486,-0.39583 0.189956,-0.0693 0.08744,0.0797 0.08744,0.0797 -0.277396,-0.0104 -0.277397,-0.0104 z m 47.615746,0 0.18995,-0.0693 0.0875,0.0797 0.0875,0.0797 -0.27739,-0.0104 -0.2774,-0.0104 0.18996,-0.0693 z m -47.036831,-0.13195 0.189957,-0.0693 0.08744,0.0797 0.08744,0.0797 -0.277396,-0.0104 -0.277397,-0.0104 z m 46.457921,0 0.18995,-0.0693 0.0875,0.0797 0.0875,0.0797 -0.2774,-0.0104 -0.2774,-0.0104 0.18996,-0.0693 z m -26.864198,-0.37168 0.0055,-0.39584 0.06668,0.23341 0.06668,0.23342 -0.07204,0.16242 -0.07213,0.16242 0.0055,-0.39583 z m -18.291165,0.10779 0.189957,-0.0693 0.08744,0.0797 0.08744,0.0797 -0.277396,-0.0104 -0.277397,-0.0104 0.189957,-0.0693 z m 43.852793,0 0.18996,-0.0693 0.0875,0.0797 0.0875,0.0797 -0.2774,-0.0104 -0.2774,-0.0104 0.18996,-0.0693 z m -42.550234,-0.2639 0.189956,-0.0693 0.08744,0.0797 0.08744,0.0797 -0.277395,-0.0104 -0.277397,-0.0104 z m 41.247684,0 0.18995,-0.0693 0.0875,0.0797 0.0875,0.0797 -0.27739,-0.0104 -0.2774,-0.0104 0.18996,-0.0693 z m -40.524041,-0.13194 0.189957,-0.0693 0.08744,0.0797 0.08744,0.0797 -0.277396,-0.0104 -0.277397,-0.0104 z m 39.800391,0 0.18996,-0.0693 0.0875,0.0797 0.0875,0.0797 -0.27739,-0.0104 -0.27739,-0.0104 0.18995,-0.0693 z m -39.076747,-0.13195 0.189956,-0.0693 0.08744,0.0797 0.08744,0.0797 -0.277395,-0.0104 -0.277398,-0.0104 z m 38.353107,0 0.18996,-0.0693 0.0875,0.0797 0.0875,0.0797 -0.27739,-0.0104 -0.2774,-0.0104 0.18995,-0.0693 z m -37.484735,-0.13195 0.189956,-0.0693 0.08744,0.0797 0.08744,0.0797 -0.277396,-0.0104 -0.277397,-0.0104 z m 36.616365,0 0.18996,-0.0693 0.0875,0.0797 0.0875,0.0797 -0.2774,-0.0104 -0.27739,-0.0104 0.18996,-0.0693 z m -35.892721,-0.13195 0.189956,-0.0693 0.08744,0.0797 0.08744,0.0797 -0.277395,-0.0104 -0.277398,-0.0104 z m 35.169081,0 0.18995,-0.0693 0.0875,0.0797 0.0875,0.0797 -0.2774,-0.0104 -0.2774,-0.0104 0.18996,-0.0693 z m -34.300709,-0.13192 0.189956,-0.0693 0.08744,0.0797 0.08744,0.0797 -0.277396,-0.0104 -0.277397,-0.0104 z m 33.432329,0 0.18996,-0.0693 0.0875,0.0797 0.0875,0.0797 -0.27739,-0.0104 -0.27739,-0.0104 0.18994,-0.0693 z m -32.563957,-0.13195 0.189957,-0.0693 0.08744,0.0797 0.08744,0.0797 -0.277396,-0.0104 -0.277398,-0.0104 0.189958,-0.0693 z m 31.695587,0 0.18996,-0.0693 0.0875,0.0797 0.0874,0.0797 -0.27739,-0.0104 -0.2774,-0.0104 0.18996,-0.0693 z m -30.682486,-0.13195 0.189957,-0.0693 0.08744,0.0797 0.08744,0.0797 -0.277396,-0.0104 -0.277397,-0.0104 z m 29.660346,0.003 0.1809,-0.0665 0.18091,0.0665 0.18092,0.0665 h -0.36183 -0.36182 z m -28.801019,-0.13194 0.180911,-0.0666 0.18091,0.0666 0.180911,0.0665 H 87.415192 87.05337 Z m 27.787909,0 0.18091,-0.0666 0.18091,0.0666 0.18092,0.0665 h -0.36183 -0.36181 z m -26.630079,-0.13195 0.18091,-0.0666 0.180911,0.0666 0.180911,0.0665 h -0.361822 -0.361822 z m 25.472259,0 0.18091,-0.0666 0.1809,0.0666 0.18091,0.0665 h -0.36181 -0.36183 z m -24.239311,-0.13601 0.256029,-0.0608 0.178157,0.0657 0.178156,0.0657 -0.434186,-0.005 -0.434186,-0.005 0.25603,-0.0608 z m 15.475251,-0.23842 0.006,-0.39584 0.0667,0.23342 0.0667,0.23342 -0.072,0.16242 -0.0721,0.16242 0.006,-0.39584 z m 7.53661,0.23843 0.25603,-0.0608 0.17816,0.0657 0.17816,0.0657 -0.43419,-0.005 -0.43418,-0.005 0.25602,-0.0608 z m -21.712057,-0.13146 0.253275,-0.0603 0.253276,0.0603 0.253274,0.0603 h -0.50655 -0.50655 z m 20.409497,-5.3e-4 0.25603,-0.0608 0.17816,0.0657 0.17815,0.0657 -0.43418,-0.005 -0.43418,-0.005 0.25602,-0.0608 z m -18.814727,-0.13194 0.256029,-0.0608 0.178157,0.0657 0.178157,0.0657 -0.434186,-0.005 -0.434186,-0.005 0.256029,-0.0608 z m 17.446097,9.6e-4 0.18996,-0.0693 0.0875,0.0797 0.0875,0.0797 -0.2774,-0.0104 -0.2774,-0.0104 0.18996,-0.0693 z M 93.082463,142.8442 v -0.32987 l 0.07299,0.16494 0.073,0.16493 -0.073,0.16492 -0.07299,0.16494 z m 4.636683,-0.32987 0.0055,-0.39584 0.06677,0.23342 0.06668,0.23341 -0.07213,0.16243 -0.07203,0.16242 0.0055,-0.39584 z m 11.867754,-1.31947 0.006,-0.39585 0.0667,0.23343 0.0667,0.23342 -0.0721,0.16242 -0.072,0.16242 0.006,-0.39584 z m -4.63669,-0.32987 v -0.32986 l 0.073,0.16493 0.073,0.16493 -0.073,0.16494 -0.073,0.16493 z m -11.717655,-0.59375 0.0054,-0.39585 0.06672,0.23342 0.06672,0.23342 -0.07208,0.16242 -0.07208,0.16242 0.0054,-0.39583 z m 4.631316,-0.2639 0.0055,-0.39584 0.06668,0.23341 0.06668,0.23342 -0.07213,0.16242 -0.07213,0.16243 0.0055,-0.39584 z m 11.578299,-1.45142 0.006,-0.39584 0.0667,0.23342 0.0667,0.23341 -0.072,0.16243 -0.0721,0.16242 0.006,-0.39584 z m -4.63132,-0.26389 0.006,-0.39584 0.0668,0.23342 0.0667,0.23341 -0.0721,0.16243 -0.072,0.16242 0.006,-0.39584 z m -35.45317,-0.19792 v -0.46182 l 0.06619,0.23091 0.06619,0.23091 -0.06619,0.23091 -0.06619,0.2309 z m 63.82,-0.0659 0.006,-0.39584 0.0667,0.23342 0.0667,0.23341 -0.072,0.16243 -0.072,0.16242 0.006,-0.39584 z m -4.64811,-0.011 0.0114,-0.2529 0.076,0.17318 0.076,0.17319 -0.0874,0.0797 -0.0875,0.0797 0.0114,-0.2529 z m -35.152286,-0.2529 0.0054,-0.39584 0.06672,0.23342 0.06672,0.23341 -0.07208,0.16243 -0.07208,0.16242 0.0054,-0.39584 z m 4.631322,-0.39584 0.0055,-0.39584 0.06668,0.23342 0.06668,0.23341 -0.07203,0.16243 -0.07213,0.16242 0.0055,-0.39584 z m 11.288844,-1.31947 0.006,-0.39584 0.0667,0.23342 0.0668,0.23342 -0.0721,0.16242 -0.0721,0.16242 0.006,-0.39584 z m -4.63133,-0.26389 0.006,-0.39585 0.0667,0.23342 0.0667,0.23343 -0.072,0.16242 -0.0721,0.16242 0.006,-0.39584 z m -72.659172,-0.59377 v -0.32986 l 0.07299,0.16493 0.07299,0.16493 -0.07299,0.16494 -0.07299,0.16493 z m 61.515065,-0.0659 0.0054,-0.39584 0.06672,0.23342 0.06672,0.23343 -0.07208,0.16242 -0.07208,0.16242 0.0054,-0.39585 z m 76.990317,0.0659 v -0.32986 l 0.073,0.16493 0.073,0.16493 -0.073,0.16494 -0.073,0.16493 z m -72.359,-0.32986 0.0055,-0.39584 0.06677,0.23341 0.06668,0.23342 -0.07213,0.16242 -0.07203,0.16242 0.0055,-0.39583 z m -18.40876,0.1481 v -0.0498 l 0.253275,-0.18109 0.253276,-0.18109 -0.198632,0.23091 -0.198632,0.2309 h -0.05465 -0.05464 z m 2.388024,-2.06133 1.296523,-1.18753 h 0.07237 0.07237 l -1.296524,1.18753 -1.296523,1.18752 h -0.07237 -0.07237 z m 22.388796,0.19792 0.006,-0.39584 0.0667,0.23342 0.0667,0.23341 -0.0721,0.16243 -0.072,0.16242 0.006,-0.39584 z m -6.223335,-0.92363 0.0055,-0.39584 0.06668,0.23342 0.06668,0.23342 -0.07203,0.16242 -0.07213,0.16242 0.0055,-0.39584 z m -13.99453,-1.38544 0.261955,-0.26389 h 0.07237 0.07237 l -0.261955,0.26389 -0.261956,0.26389 h -0.07237 -0.07237 z m 20.073145,-0.19792 0.006,-0.39584 0.0667,0.23341 0.0667,0.23342 -0.0721,0.16242 -0.072,0.16242 0.006,-0.39583 z m -5.93388,-0.92363 0.0055,-0.39584 0.06668,0.23342 0.06668,0.23341 -0.07203,0.16242 -0.07213,0.16243 0.0055,-0.39584 z m 5.78914,-1.71531 0.006,-0.39585 0.0667,0.23343 0.0667,0.23342 -0.0721,0.16242 -0.0721,0.16242 0.006,-0.39584 z m -5.649781,-0.85766 v -0.32987 l 0.07296,0.16494 0.07296,0.16493 -0.07296,0.16494 -0.07296,0.16493 z m 5.505061,-1.64933 0.006,-0.39584 0.0667,0.23341 0.0667,0.23342 -0.0721,0.16242 -0.072,0.16243 0.006,-0.39584 z m -34.72953,-2.96881 v -0.46181 l 0.06619,0.23091 0.06619,0.2309 -0.06619,0.23091 -0.06619,0.2309 z m 63.82,-0.0659 0.006,-0.39584 0.0667,0.23342 0.0667,0.23343 -0.072,0.16242 -0.072,0.16242 0.006,-0.39585 z m -4.64811,-0.011 0.0114,-0.2529 0.076,0.17319 0.076,0.17318 -0.0874,0.0797 -0.0875,0.0797 0.0114,-0.2529 z M 78.876198,119.9677 v -0.0498 l 0.253275,-0.1811 0.253275,-0.18108 -0.198631,0.2309 -0.198633,0.23091 h -0.05464 -0.05465 z m 1.230194,-1.00576 0.261956,-0.26389 h 0.07237 0.07237 l -0.261955,0.26389 -0.261957,0.2639 h -0.07237 -0.07237 z m 2.388024,-2.04518 1.223802,-1.12154 h 0.07237 0.07237 l -1.223802,1.12154 -1.223803,1.12155 h -0.07237 -0.07237 z m 10.287165,-1.7263 0.01141,-0.2529 0.07601,0.17318 0.07601,0.17319 -0.08744,0.0797 -0.08744,0.0797 0.01143,-0.2529 z m -8.043871,-0.45082 0.261957,-0.26389 h 0.07237 0.07237 l -0.261956,0.26389 -0.261956,0.2639 h -0.07237 -0.07237 z m 8.188599,-0.34086 0.01141,-0.2529 0.07601,0.17318 0.07601,0.17318 -0.08744,0.0797 -0.08744,0.0797 0.01143,-0.2529 z m -7.537319,-0.36869 v -0.0499 l 0.253275,-0.18108 0.253275,-0.1811 -0.198631,0.23091 -0.198633,0.23091 h -0.05465 -0.05464 z m -11.065565,-6.53841 -0.08326,-0.12282 0.122968,-0.0693 0.122968,-0.0693 v 0.19211 0.19212 h -0.0397 -0.0397 z m -4.971107,-0.60288 0.0054,-0.39584 0.06672,0.23342 0.06672,0.23342 -0.07208,0.16242 -0.07208,0.16243 0.0054,-0.39585 z m 63.825362,0 0.006,-0.39584 0.0667,0.23342 0.0667,0.23342 -0.072,0.16242 -0.072,0.16243 0.006,-0.39585 z m -4.64811,-0.011 0.0114,-0.25291 0.076,0.17318 0.076,0.17318 -0.0874,0.0797 -0.0875,0.0797 0.0114,-0.2529 z m -49.7981,-2.6118 v -0.0499 l 0.253274,-0.1811 0.253276,-0.18108 -0.198632,0.2309 -0.198633,0.2309 h -0.05464 -0.05465 z m 1.230193,-1.00575 0.261957,-0.2639 h 0.07237 0.07237 l -0.261957,0.2639 -0.261956,0.26389 h -0.07237 -0.07237 z m 1.592016,-1.31947 0.565296,-0.52779 h 0.07237 0.07237 l -0.565296,0.52779 -0.565295,0.52778 h -0.07237 -0.07237 z m 11.384055,-2.111156 v -0.329869 l 0.073,0.164934 0.073,0.164935 -0.073,0.164934 -0.073,0.164932 z m -7.982931,-0.989598 0.490968,-0.461819 h 0.07237 0.07237 l -0.490967,0.461819 -0.490967,0.461809 h -0.07237 -0.07237 z m 8.146202,-0.527789 0.0019,-0.659738 0.06048,0.364673 0.06048,0.364664 -0.06246,0.295065 -0.06246,0.295065 z M 86.257362,97.53674 v -0.04986 l 0.253276,-0.181085 0.253274,-0.181095 -0.198631,0.230904 -0.198633,0.230914 h -0.05464 -0.05465 z m 0.868373,-0.923628 v -0.04986 l 0.253274,-0.181085 0.253276,-0.181095 -0.198632,0.230904 -0.198633,0.230914 h -0.05464 -0.05464 z m 0.723643,-0.791679 v -0.04986 l 0.253275,-0.181095 0.253275,-0.181086 -0.198631,0.230905 -0.198633,0.230904 h -0.05464 -0.05465 z M 32.006948,85.579245 v -0.329867 l 0.07299,0.164934 0.07299,0.164933 -0.07299,0.164934 -0.07299,0.164933 z m 138.505382,0 v -0.329867 l 0.073,0.164934 0.073,0.164933 -0.073,0.164934 -0.073,0.164933 z M 38.35216,71.806951 v -0.04982 l 0.253274,-0.181091 0.253276,-0.181089 -0.198632,0.230908 -0.198632,0.230906 h -0.05465 -0.05465 z m 125.60606,-0.181089 -0.19863,-0.230908 0.25327,0.181089 0.25328,0.181091 v 0.04982 0.04982 h -0.0547 -0.0547 z M 40.01654,70.273406 40.278496,70.009511 h 0.07237 0.07237 l -0.261956,0.263895 -0.261957,0.263893 h -0.07237 -0.07237 z m 122.49439,0.03299 -0.19863,-0.230908 0.25328,0.181089 0.25327,0.181091 v 0.04982 0.04982 h -0.0547 -0.0547 z M 97.401474,68.09628 97.741385,67.766413 h 0.0724 0.0724 l -0.33992,0.329867 -0.339911,0.329867 h -0.0724 -0.0724 z m 7.584506,-0.09896 -0.27571,-0.29688 0.32564,0.251356 0.32564,0.251358 v 0.04553 0.04553 h -0.05 -0.05 z m -3.93011,-1.377438 0.25328,-0.06034 0.25327,0.06034 0.25328,0.06034 h -0.50655 -0.50655 z m 0.0724,-25.726074 0.18091,-0.06656 0.1809,0.06656 0.18091,0.06655 h -0.36181 -0.36183 z"
         id="path3089" /><path
         style="fill:#767676;fill-opacity:1;stroke-width:0.143159"
         d="m 105.74223,178.02458 0.47528,-0.057 0.39735,0.0585 0.39735,0.0584 -0.87263,-0.001 -0.87263,-0.001 0.47528,-0.057 z m 2.18157,0 0.47528,-0.057 0.39735,0.0585 0.39736,0.0584 -0.87264,-0.001 -0.87263,-0.001 0.47528,-0.057 z m -3.784,-0.13212 0.1818,-0.0711 0.18179,0.0711 0.1818,0.0711 h -0.36359 -0.3636 z m 5.81754,0 0.1818,-0.0711 0.18179,0.0711 0.1818,0.0711 h -0.36359 -0.3636 z m -6.82652,-0.14385 0.19089,-0.074 0.0879,0.0851 0.0879,0.0851 -0.27875,-0.0111 -0.27876,-0.0111 0.19089,-0.074 z m 7.99912,0 0.19088,-0.074 0.0879,0.0851 0.0879,0.0851 -0.27876,-0.0111 -0.27875,-0.0111 0.19089,-0.074 z m -70.092627,-26.36072 -0.199606,-0.2466 0.254517,0.1934 0.254517,0.1934 v 0.0532 0.0532 h -0.05491 -0.05491 z m 132.076687,0.1934 v -0.0532 l 0.25451,-0.1934 0.25452,-0.1934 -0.19961,0.2466 -0.1996,0.24661 h -0.0549 -0.0549 z m -133.967387,-2.0253 -0.199607,-0.24661 0.254518,0.1934 0.254517,0.1934 v 0.0532 0.0532 h -0.05491 -0.05491 z m 135.858087,0.19339 v -0.0532 l 0.25451,-0.1934 0.25452,-0.1934 -0.19961,0.24661 -0.1996,0.2466 h -0.0549 -0.0549 z m -74.62849,-0.47523 -0.19961,-0.2466 0.25452,0.1934 0.25451,0.1934 v 0.0532 0.0532 h -0.0549 -0.0549 z m 14.05336,-0.17614 0.26324,-0.28183 h 0.0727 0.0727 l -0.26324,0.28183 -0.26324,0.28183 h -0.0727 -0.0727 z m -14.635115,-0.38752 -0.1996,-0.2466 0.25451,0.19339 0.254515,0.19341 v 0.0532 0.0532 h -0.0549 -0.0549 z m -55.036753,-2.74786 -0.57491,-0.5989 0.618113,0.55704 0.618114,0.55703 v 0.0419 0.0419 h -0.0432 -0.0432 z m 124.793048,0.0352 0.56807,-0.56367 h 0.0727 0.0727 l -0.56807,0.56367 -0.56807,0.56366 h -0.0727 -0.0727 z m -70.853525,-0.63413 10e-4,-0.98641 0.0572,0.53158 0.0572,0.53158 -0.0584,0.45483 -0.0584,0.45484 0.001,-0.98642 z m 17.270935,0.12918 0.0115,-0.27009 0.0764,0.18495 0.0764,0.18495 -0.0879,0.0851 -0.0879,0.0851 0.0115,-0.27009 z m -12.78172,-0.41101 0.005,-0.42275 0.067,0.24929 0.0671,0.24928 -0.0724,0.17347 -0.0724,0.17346 0.005,-0.42275 z m 67.60054,-0.40549 v -0.0532 l 0.25452,-0.1934 0.25451,-0.19339 -0.1996,0.2466 -0.19961,0.2466 h -0.0549 -0.0549 z m -54.93415,-1.42642 0.002,-0.70458 0.0608,0.38946 0.0608,0.38946 -0.0628,0.31512 -0.0628,0.31512 z m -4.52183,0 0.005,-0.42274 0.0671,0.24928 0.067,0.24929 -0.0724,0.17346 -0.0724,0.17346 0.005,-0.42275 z m -12.492475,-0.91595 v -0.77504 l 0.0606,0.38752 0.0606,0.38752 -0.0606,0.38752 -0.0606,0.38752 z m 4.487965,0 v -0.35229 l 0.0734,0.17614 0.0734,0.17615 -0.0734,0.17614 -0.0734,0.17615 z m 12.38289,-1.83191 v -0.77504 l 0.0606,0.38752 0.0606,0.38752 -0.0606,0.38752 -0.0606,0.38752 z m -4.52382,0.0705 0.005,-0.42275 0.067,0.24929 0.067,0.24928 -0.0724,0.17346 -0.0724,0.17347 0.005,-0.42275 z m -12.205575,-0.91595 v -0.63413 l 0.063,0.31706 0.063,0.31707 -0.063,0.31706 -0.063,0.31706 z m 4.497335,-0.0705 0.005,-0.42275 0.067,0.24928 0.0671,0.24929 -0.0724,0.17346 -0.0724,0.17347 0.005,-0.42275 z m -23.260146,-1.01707 0.401955,-0.0589 0.325237,0.0608 0.325237,0.0608 -0.727192,-0.002 -0.727193,-0.002 0.401956,-0.0589 z m 53.301196,0.002 0.32724,-0.0611 0.32723,0.0611 0.32724,0.0611 h -0.65447 -0.65448 z m -17.97505,-0.46421 v -0.35229 l 0.0734,0.17614 0.0734,0.17615 -0.0734,0.17614 -0.0734,0.17615 z m -4.5032,-0.35229 0.005,-0.42275 0.067,0.24929 0.067,0.24928 -0.0724,0.17346 -0.0724,0.17347 0.005,-0.42275 z m -11.925955,-0.56366 0.005,-0.42275 0.0671,0.24928 0.067,0.24929 -0.0724,0.17346 -0.0724,0.17346 0.005,-0.42274 z m 38.076525,0.30819 v -0.0441 l 0.47268,-0.41389 0.47267,-0.41388 -0.42716,0.45798 -0.42717,0.45798 h -0.0455 -0.0455 z m -60.513407,-0.48434 -0.352588,-0.38752 0.399956,0.34163 0.399955,0.34162 v 0.0459 0.0459 h -0.04737 -0.04737 z m 26.940087,-0.17614 v -0.35229 l 0.0734,0.17614 0.0733,0.17615 -0.0733,0.17614 -0.0734,0.17615 z m 11.7859,-1.47962 0.005,-0.42275 0.067,0.24928 0.067,0.24929 -0.0724,0.17346 -0.0724,0.17347 0.005,-0.42275 z m -4.50859,-0.28183 0.005,-0.42275 0.067,0.24928 0.0671,0.24929 -0.0724,0.17346 -0.0724,0.17346 0.005,-0.42274 z m -11.635075,-0.70458 0.005,-0.42275 0.067,0.24928 0.0671,0.24929 -0.0724,0.17346 -0.0724,0.17346 0.005,-0.42274 z m 4.508595,-0.28184 0.005,-0.42274 0.067,0.24928 0.067,0.24928 -0.0724,0.17347 -0.0724,0.17346 0.005,-0.42275 z m -23.88318,-0.14432 -0.183971,-0.21478 0.06259,-0.0606 0.06259,-0.0607 0.177525,0.27543 0.177526,0.27542 H 80.12514 80.069 Z m 35.37282,-1.26484 0.005,-0.42274 0.0671,0.24928 0.067,0.24928 -0.0724,0.17347 -0.0724,0.17346 0.005,-0.42275 z m -35.151745,-0.0704 0.263241,-0.28184 h 0.07272 0.07272 l -0.26324,0.28184 -0.263241,0.28183 h -0.07272 -0.07272 z m 54.011835,-0.10569 -0.1996,-0.2466 0.25451,0.19339 0.25452,0.1934 v 0.0532 0.0532 h -0.0549 -0.0549 z m -23.36869,-0.2466 0.005,-0.42275 0.067,0.24928 0.067,0.24929 -0.0724,0.17346 -0.0724,0.17346 0.005,-0.42274 z m -29.915952,-0.49321 0.26324,-0.28183 h 0.07272 0.07272 l -0.263241,0.28183 -0.263241,0.28183 h -0.07272 -0.07272 z m 18.571757,-0.0705 0.005,-0.42275 0.067,0.24929 0.067,0.24928 -0.0724,0.17347 -0.0724,0.17346 0.005,-0.42275 z m 33.985695,-0.0352 -0.19961,-0.2466 0.25452,0.1934 0.25452,0.1934 v 0.0532 0.0532 h -0.0549 -0.0549 z m -29.47711,-0.2466 0.005,-0.42275 0.0671,0.24929 0.067,0.24928 -0.0724,0.17346 -0.0724,0.17347 0.005,-0.42275 z m -22.571308,-0.26458 v -0.0532 l 0.254518,-0.1934 0.254517,-0.1934 -0.199606,0.2466 -0.199607,0.24661 h -0.05491 -0.05491 z m 0.581754,-0.70458 v -0.0532 l 0.254517,-0.1934 0.254518,-0.1934 -0.199606,0.2466 -0.199607,0.24661 h -0.05491 -0.05491 z m 33.188324,-0.58092 0.005,-0.42275 0.067,0.24929 0.067,0.24928 -0.0724,0.17347 -0.0724,0.17346 0.005,-0.42275 z m -4.5086,-0.28183 0.005,-0.42275 0.067,0.24929 0.067,0.24928 -0.0724,0.17347 -0.0724,0.17346 0.005,-0.42275 z m -28.09797,0.15817 v -0.0532 l 0.254517,-0.1934 0.254518,-0.1934 -0.199606,0.2466 -0.199607,0.24661 h -0.05491 -0.05491 z m 54.81175,-0.33431 -0.19961,-0.24661 0.25452,0.1934 0.25452,0.1934 v 0.0532 0.0532 h -0.0549 -0.0549 z m -37.772485,-0.45798 v -0.35229 l 0.0734,0.17614 0.0734,0.17615 -0.0734,0.17614 -0.0734,0.17615 z m -16.457511,0.0877 v -0.0532 l 0.254517,-0.1934 0.254518,-0.1934 -0.199606,0.2466 -0.199607,0.2466 h -0.05491 -0.05491 z m 20.971486,-0.44 0.005,-0.42275 0.067,0.24929 0.0671,0.24928 -0.0724,0.17346 -0.0724,0.17347 0.005,-0.42275 z m -20.535171,-0.12366 v -0.0532 l 0.254518,-0.1934 0.254517,-0.1934 -0.199606,0.24661 -0.199607,0.2466 h -0.05491 -0.05491 z m 1.01807,-1.26825 v -0.0532 l 0.254517,-0.1934 0.254517,-0.1934 -0.199605,0.2466 -0.199607,0.24661 h -0.05491 -0.05491 z m 25.911011,-0.36954 v -0.35229 l 0.0734,0.17614 0.0734,0.17615 -0.0734,0.17614 -0.0734,0.17615 z M 84.978284,126.6395 v -0.0532 l 0.254517,-0.1934 0.254518,-0.1934 -0.199606,0.2466 -0.199607,0.2466 h -0.05491 -0.05491 z m 19.226226,-0.72184 0.005,-0.42274 0.067,0.24928 0.067,0.24929 -0.0724,0.17346 -0.0724,0.17346 0.005,-0.42275 z m -18.78991,0.15817 v -0.0532 l 0.254517,-0.1934 0.254517,-0.1934 -0.199605,0.24661 -0.199607,0.2466 h -0.05491 -0.05491 z m 0.436315,-0.56366 v -0.0532 l 0.254517,-0.1934 0.254518,-0.1934 -0.199606,0.2466 -0.199607,0.2466 h -0.05491 -0.05491 z m 24.462015,-1.42641 0.005,-0.42275 0.067,0.24928 0.067,0.24929 -0.0724,0.17346 -0.0724,0.17346 0.005,-0.42274 z m -23.298507,-0.12367 v -0.0532 l 0.254517,-0.1934 0.254517,-0.1934 -0.199605,0.24661 -0.199607,0.2466 h -0.05491 -0.05491 z m 17.335527,-0.86275 0.005,-0.42274 0.067,0.24928 0.0671,0.24929 -0.0724,0.17346 -0.0724,0.17346 0.005,-0.42275 z m -16.608335,-0.12366 v -0.0532 l 0.254518,-0.1934 0.254517,-0.1934 -0.199606,0.2466 -0.199607,0.24661 h -0.05491 -0.05491 z m 45.997685,-1.03086 0.25728,-0.065 0.17903,0.0702 0.17903,0.0702 -0.43631,-0.005 -0.43632,-0.005 0.25729,-0.065 z m -23.57181,-0.53647 0.005,-0.42275 0.0671,0.24929 0.067,0.24928 -0.0724,0.17347 -0.0724,0.17346 0.005,-0.42275 z M 89.196,121.00286 v -0.0532 l 0.254517,-0.1934 0.254518,-0.1934 -0.199606,0.2466 -0.199607,0.2466 h -0.05491 -0.05491 z m -12.448808,-0.54569 -0.277059,-0.31706 0.327237,0.26844 0.327236,0.26845 v 0.0486 0.0486 h -0.05018 -0.05018 z m 27.748198,-0.0352 0.005,-0.42275 0.0671,0.24929 0.067,0.24928 -0.0724,0.17347 -0.0724,0.17346 0.005,-0.42275 z m 33.0589,0.0705 0.26324,-0.28183 h 0.0727 0.0727 l -0.26324,0.28183 -0.26324,0.28183 h -0.0727 -0.0727 z m -47.340221,-0.8987 v -0.0532 l 0.254518,-0.1934 0.254517,-0.1934 -0.199606,0.2466 -0.199607,0.2466 h -0.05491 -0.05491 z m -9.771647,-2.01588 0.190888,-0.074 0.08787,0.0851 0.08787,0.0851 -0.278756,-0.0111 -0.278757,-0.0111 0.190888,-0.074 z m 53.375918,0 0.19089,-0.074 0.0879,0.0851 0.0879,0.0851 -0.27875,-0.0111 -0.27876,-0.0111 0.19089,-0.074 z m -53.93332,-0.25944 -0.183971,-0.21478 0.06259,-0.0606 0.06259,-0.0606 0.177525,0.27542 0.177526,0.27542 H 80.12514 80.069 Z m 11.928873,0.0207 v -0.0532 l 0.254517,-0.1934 0.254517,-0.1934 -0.199605,0.2466 -0.199607,0.24661 h -0.05491 -0.05491 z m -11.925956,-1.12733 v -0.0532 l 0.254518,-0.1934 0.254517,-0.1934 -0.199605,0.24661 -0.199607,0.2466 h -0.05491 -0.05491 z m 0.799912,-0.9332 0.263241,-0.28184 h 0.07272 0.07272 l -0.26324,0.28184 -0.263241,0.28183 h -0.07272 -0.07272 z m 0.727192,-0.8455 0.263241,-0.28183 h 0.07272 0.07272 l -0.263241,0.28183 -0.263241,0.28183 H 81.22452 81.1518 Z m 0.581754,-0.70458 0.263241,-0.28183 h 0.07272 0.07272 l -0.263241,0.28183 -0.263241,0.28183 h -0.07272 -0.07272 z m 0.581754,-0.70458 0.263241,-0.28183 h 0.07272 0.07272 l -0.26324,0.28183 -0.263241,0.28184 h -0.07272 -0.07272 z m -5.890258,0.0877 v -0.0532 l 0.254517,-0.1934 0.254518,-0.1934 -0.199606,0.24661 -0.199607,0.2466 h -0.05491 -0.05491 z m 6.253854,-0.56366 v -0.0532 l 0.254518,-0.1934 0.254517,-0.1934 -0.199605,0.2466 -0.199607,0.24661 h -0.05491 -0.05491 z m 12.653148,-0.65138 0.155673,-0.28183 h 0.07272 0.07272 l -0.15567,0.28183 -0.155673,0.28184 h -0.07272 -0.07272 z m -12.071394,-0.0532 v -0.0532 l 0.254518,-0.1934 0.254517,-0.1934 -0.199606,0.24661 -0.199607,0.2466 h -0.05491 -0.05491 z m 0.436316,-0.56366 v -0.0532 l 0.254517,-0.1934 0.254517,-0.1934 -0.199605,0.2466 -0.199607,0.24661 h -0.05491 -0.05491 z m 0.436315,-0.56366 v -0.0532 l 0.254518,-0.1934 0.254517,-0.1934 -0.199606,0.2466 -0.199607,0.2466 h -0.05491 -0.05491 z m 0.436316,-0.56367 v -0.0532 l 0.254517,-0.1934 0.254517,-0.1934 -0.199605,0.24661 -0.199607,0.2466 h -0.05491 -0.05491 z m 12.653149,-1.07412 0.15567,-0.28183 h 0.0727 0.0727 l -0.15567,0.28183 -0.15568,0.28183 h -0.0727 -0.0727 z m -11.780518,-0.0532 v -0.0532 l 0.254517,-0.1934 0.254517,-0.1934 -0.199605,0.2466 -0.199607,0.2466 h -0.05491 -0.05491 z m 0.436315,-0.56367 v -0.0532 l 0.254517,-0.1934 0.254518,-0.1934 -0.199606,0.24661 -0.199607,0.2466 h -0.05491 -0.05491 z m 0.436315,-0.56366 v -0.0532 l 0.254518,-0.1934 0.254517,-0.1934 -0.199606,0.2466 -0.199607,0.24661 h -0.05491 -0.05491 z m 1.163508,-1.55008 v -0.0532 l 0.254518,-0.1934 0.254517,-0.1934 -0.199606,0.24661 -0.199607,0.2466 h -0.05491 -0.05491 z m 0.727193,-0.98641 v -0.0532 l 0.254517,-0.1934 0.254517,-0.1934 -0.199605,0.2466 -0.199607,0.24661 h -0.05491 -0.05491 z m -11.799069,-1.60256 -0.199606,-0.2466 0.254518,0.1934 0.254517,0.1934 v 0.0532 0.0532 h -0.05491 -0.05491 z m 12.817138,0.1934 v -0.0532 l 0.254517,-0.1934 0.254518,-0.1934 -0.199606,0.2466 -0.199607,0.24661 h -0.05491 -0.05491 z m 1.018069,-1.40916 v -0.0532 l 0.254518,-0.1934 0.254517,-0.1934 -0.199606,0.2466 -0.199607,0.24661 h -0.05491 -0.05491 z m -10.695708,-1.92899 -0.09587,-0.1503 0.06932,-0.0672 0.06932,-0.0672 0.08612,0.21746 0.08612,0.21745 h -0.05957 -0.05957 z m -0.06674,-0.790799 v -0.143008 l 0.327237,-0.268443 0.327236,-0.268444 -0.289326,0.35229 -0.289328,0.35229 -0.03791,0.05872 -0.03791,0.05871 z m 54.520872,-0.432845 -0.19961,-0.246603 0.25452,0.193399 0.25452,0.1934 v 0.0532 0.0532 h -0.0549 -0.0549 z M 92.9774,99.019624 v -0.0532 l 0.254518,-0.1934 0.254517,-0.193399 -0.199606,0.246603 -0.199607,0.246603 h -0.05491 -0.05491 z M 80.687849,98.65008 80.95109,98.368248 h 0.07272 0.07272 l -0.26324,0.281832 -0.263241,0.281832 h -0.07272 -0.07272 z m 0.581754,-0.70458 0.263241,-0.281832 h 0.07272 0.07272 l -0.263241,0.281832 -0.26324,0.281832 h -0.07272 -0.07272 z m 0.509035,-0.616868 v -0.0532 l 0.254517,-0.1934 0.254517,-0.193399 -0.199605,0.246603 -0.199607,0.246603 h -0.05491 -0.05491 z m 0.581754,-0.70458 v -0.0532 l 0.254517,-0.1934 0.254517,-0.193399 -0.199605,0.246603 -0.199607,0.246603 h -0.05491 -0.05491 z m 0.581753,-0.70458 v -0.0532 l 0.254518,-0.1934 0.254517,-0.193399 -0.199605,0.246603 -0.199607,0.246603 h -0.05491 -0.05491 z m 0.436316,-0.563664 v -0.0532 l 0.254517,-0.1934 0.254518,-0.193399 -0.199606,0.246603 -0.199607,0.246603 h -0.05491 -0.05491 z m 0.581754,-0.70458 v -0.0532 l 0.254517,-0.1934 0.254517,-0.193399 -0.199605,0.246603 -0.199607,0.246603 h -0.05491 -0.05491 z m 0.436315,-0.563664 v -0.0532 l 0.254518,-0.1934 0.254517,-0.193399 -0.199606,0.246603 -0.199607,0.246603 h -0.05491 -0.05491 z M 84.832846,93.5239 v -0.0532 l 0.254517,-0.1934 0.254517,-0.193399 -0.199605,0.246603 -0.199607,0.246603 h -0.05491 -0.05491 z m 0.436315,-0.563665 v -0.0532 l 0.254517,-0.193401 0.254518,-0.193398 -0.199606,0.246603 -0.199607,0.246603 h -0.05491 -0.05491 z m 0.436316,-0.563664 v -0.0532 l 0.254517,-0.193401 0.254517,-0.193398 -0.199605,0.246603 -0.199607,0.246603 h -0.05491 -0.05491 z m 0.436315,-0.563664 v -0.0532 l 0.254517,-0.193401 0.254518,-0.193398 -0.199606,0.246603 -0.199607,0.246603 h -0.05491 -0.05491 z m 0.727192,-0.986412 v -0.0532 l 0.254518,-0.193401 0.254517,-0.193398 -0.199606,0.246603 -0.199607,0.246603 h -0.05491 -0.05491 z m 11.577341,-0.06423 -0.0749,-0.117431 h 0.20537 0.20536 l -0.0749,0.117431 -0.0749,0.11743 h -0.0555 -0.0556 z M 87.3053,90.282831 v -0.0532 l 0.254517,-0.1934 0.254517,-0.193398 -0.199605,0.246603 -0.199607,0.246603 h -0.05491 -0.05491 z m 0.727192,-0.986412 v -0.0532 l 0.254517,-0.1934 0.254518,-0.193399 -0.199606,0.246603 -0.199607,0.246604 h -0.05491 -0.05491 z m 0.727193,-0.986412 v -0.0532 l 0.254517,-0.1934 0.254517,-0.193399 -0.199605,0.246603 -0.199607,0.246603 h -0.05491 -0.05491 z m 1.018069,-1.40916 v -0.0532 l 0.254517,-0.1934 0.254518,-0.193399 -0.199606,0.246603 -0.199607,0.246603 h -0.05491 -0.05491 z M 91.0867,85.068939 v -0.0532 l 0.254517,-0.1934 0.254518,-0.193399 -0.199606,0.246603 -0.199607,0.246603 h -0.05491 -0.05491 z m 9.88981,-14.602061 0.15567,-0.281832 h 0.0727 0.0727 l -0.15567,0.281832 -0.15567,0.281832 h -0.0727 -0.0727 z m 2.18158,-3.381984 0.15567,-0.281832 h 0.0727 0.0727 l -0.15567,0.281832 -0.15568,0.281832 h -0.0727 -0.0727 z m 67.75578,-3.910419 -0.19961,-0.246603 0.25452,0.193399 0.25452,0.1934 v 0.0532 0.0532 h -0.0549 -0.0549 z M 44.764545,61.730086 45.332613,61.166422 h 0.07272 0.07272 l -0.568068,0.563664 -0.568068,0.563664 h -0.07272 -0.07272 z m 124.705655,-0.105687 -0.5012,-0.528435 0.54539,0.48562 0.5454,0.485619 v 0.04282 0.04282 h -0.0442 -0.0442 z m -1.4651,-1.268244 -0.19961,-0.246603 0.25452,0.193398 0.25452,0.193401 v 0.0532 0.0532 h -0.0549 -0.0549 z M 39.019726,58.294897 v -0.0532 l 0.254517,-0.1934 0.254517,-0.193398 -0.199606,0.246603 -0.199606,0.246603 h -0.05491 -0.05491 z m 136.111854,-0.193398 -0.1996,-0.246603 0.25451,0.193398 0.25452,0.1934 v 0.0532 0.0532 h -0.0549 -0.0549 z M 40.910426,56.462989 v -0.0532 l 0.254517,-0.1934 0.254518,-0.193399 -0.199607,0.246603 -0.199606,0.246603 h -0.05491 -0.05491 z m 132.330454,-0.193399 -0.1996,-0.246603 0.25451,0.193399 0.25452,0.1934 v 0.0532 0.0532 h -0.0549 -0.0549 z m -67.79214,-26.620764 0.1818,-0.07108 0.1818,0.07108 0.1818,0.07108 h -0.3636 -0.36359 z m 3.19965,0 0.1818,-0.07108 0.1818,0.07108 0.1818,0.07108 h -0.3636 -0.3636 z"
         id="path4743" /><path
         style="fill:#cccccc;fill-opacity:1;stroke-width:0.111704"
         d="m 57.410645,109.30022 -2.455178,-1.37308 -1.075333,-0.76905 -1.075332,-0.76904 -0.949278,-0.91654 -0.949279,-0.91654 -0.672728,-0.84562 -0.672729,-0.8456 -0.470079,-0.73489 -0.470077,-0.73488 -0.443922,-0.8472 -0.443923,-0.847206 -0.403462,-1.038041 -0.403463,-1.038041 -0.291963,-1.256578 -0.291963,-1.256579 -0.118168,-1.201948 -0.118169,-1.20194 v -19.83208 -19.83208 l 0.118169,-1.201944 0.118168,-1.201945 0.291963,-1.256578 0.291963,-1.256578 0.403463,-1.038042 0.403462,-1.038043 0.443923,-0.847205 0.443922,-0.847204 0.469966,-0.737177 0.469966,-0.737176 0.755863,-0.928776 0.755863,-0.928774 0.896579,-0.850136 0.89658,-0.850136 0.890026,-0.648289 0.890025,-0.648289 1.125635,-0.645761 1.125635,-0.645761 17.471729,-9.652646 17.47173,-9.652647 1.256137,-0.517739 1.256138,-0.517741 1.027748,-0.283078 1.02775,-0.283077 1.027748,-0.184863 1.027749,-0.184862 2.340981,0.0012 2.34099,0.0012 1.05466,0.191313 1.05468,0.191312 1.00082,0.275434 1.00083,0.275434 1.25613,0.518478 1.25615,0.518479 18.13775,10.024805 18.13775,10.024805 0.47592,0.28452 0.47592,0.284519 0.96199,0.715363 0.96198,0.715364 0.81485,0.779699 0.81486,0.779701 0.74932,0.92048 0.74932,0.920481 0.46996,0.737176 0.46998,0.737177 0.44392,0.847205 0.44392,0.847203 0.40346,1.038044 0.40346,1.038042 0.29197,1.256578 0.29195,1.256579 0.11818,1.201944 0.11816,1.201944 v 19.832077 19.83208 l -0.11854,1.196163 -0.11854,1.196162 -0.23579,1.041319 -0.23578,1.041318 -0.33616,0.985911 -0.33618,0.985919 -0.54697,1.092682 -0.54698,1.09267 -0.49001,0.76487 -0.49001,0.76488 -0.75586,0.92878 -0.75586,0.92877 -0.90862,0.86154 -0.90861,0.86154 -1.03298,0.73868 -1.03297,0.73867 -2.47393,1.37733 -2.47394,1.37732 h -0.0464 -0.0464 l -1.41939,-0.7805 -1.41938,-0.78052 -2.34098,-1.12046 -2.34098,-1.12047 -1.37034,-0.56835 -1.37032,-0.56834 -1.37034,-0.52346 -1.37033,-0.52345 -1.88421,-0.62072 -1.8842,-0.62072 -2.12524,-0.58456 -2.12524,-0.58454 -2.05484,-0.44459 -2.05483,-0.44458 -2.329,-0.37437 -2.32901,-0.37437 -1.71291,-0.17691 -1.71291,-0.17692 -0.46257,-0.0543 -0.46256,-0.0543 -0.20234,-3.885854 -0.20234,-3.88586 0.0368,-0.03361 0.0368,-0.03361 2.1126,1.360095 2.11259,1.360086 1.82711,1.054955 1.82711,1.054964 2.41566,1.173922 2.41565,1.173931 0.65789,0.182996 0.65788,0.183003 0.86616,-0.04925 0.86616,-0.04924 0.65841,-0.31009 0.6584,-0.310081 0.57558,-0.582321 0.57556,-0.582321 0.22837,-0.493988 0.22836,-0.493988 0.10709,-0.62609 0.10709,-0.62609 -0.12235,-0.648724 -0.12234,-0.648723 -0.26947,-0.498586 -0.26948,-0.498587 -1.04292,-1.201948 -1.04293,-1.20194 -1.56946,-1.966822 -1.56946,-1.966813 -0.25426,-0.350957 -0.25427,-0.350958 0.5471,0.238177 0.5471,0.238178 1.08484,0.0033 1.08485,0.0033 0.65297,-0.292841 0.65297,-0.292849 0.55418,-0.496003 0.55418,-0.496003 0.30829,-0.583048 0.30829,-0.583048 0.11109,-0.649551 0.11108,-0.64956 -0.12235,-0.648723 -0.12234,-0.648724 -0.26591,-0.498586 -0.26591,-0.498586 -1.2198,-1.420478 -1.21981,-1.420486 -1.54974,-1.966813 -1.54974,-1.966821 -0.11471,-0.142052 -0.11472,-0.142052 0.61824,0.244231 0.61824,0.244239 1.03015,0.0067 1.03015,0.0067 0.76097,-0.358457 0.76097,-0.358466 0.50713,-0.539714 0.50713,-0.539714 0.25192,-0.512825 0.25193,-0.512825 0.10312,-0.612704 0.10312,-0.612713 -0.10456,-0.614728 -0.10456,-0.614728 -0.28271,-0.530324 -0.28272,-0.530325 -1.22075,-1.420477 -1.22075,-1.420486 -1.97133,-2.513157 -1.97132,-2.513149 -1.51264,-2.076087 -1.51263,-2.076085 -1.97014,-2.840959 -1.97014,-2.840959 -1.99512,-3.004861 -1.99513,-3.00486 -1.81803,-2.824655 -1.81804,-2.824656 -0.47325,-0.472994 -0.47324,-0.472994 -0.5617,-0.272354 -0.5617,-0.272352 -0.70652,-0.122589 -0.70651,-0.122589 -0.70652,0.122589 -0.706522,0.122589 -0.55961,0.271341 -0.559611,0.271342 -0.475332,0.461659 -0.475335,0.461659 -1.535663,2.399931 -1.535663,2.399931 -2.391732,3.605834 -2.39173,3.605832 -2.133022,3.059494 -2.133022,3.059494 -1.125221,1.529748 -1.12522,1.529747 -1.081644,1.420476 -1.081644,1.420477 -1.283482,1.584385 -1.283481,1.584376 -0.984495,1.147293 -0.984494,1.147285 -0.236904,0.482249 -0.236904,0.482249 -0.103123,0.612705 -0.103123,0.612713 0.110101,0.647293 0.110101,0.647302 0.308296,0.583049 0.308294,0.583048 0.554178,0.496003 0.554178,0.496003 0.65297,0.291127 0.652972,0.291127 1.027748,-0.005 1.027749,-0.005 0.606644,-0.231171 0.606644,-0.231163 -0.103118,0.128683 -0.103118,0.128675 -1.549739,1.966821 -1.549739,1.966813 -1.219806,1.420478 -1.219807,1.420485 -0.265907,0.498587 -0.265905,0.498586 -0.128495,0.678028 -0.128494,0.678037 0.120617,0.6263 0.12062,0.626291 0.285852,0.559947 0.285854,0.559947 0.573229,0.513051 0.573229,0.513059 0.65297,0.292841 0.652972,0.292849 1.084846,-0.0075 1.084846,-0.0075 0.552267,-0.238177 0.552268,-0.238177 -0.43164,0.573809 -0.431639,0.57381 -1.262572,1.580689 -1.262571,1.580689 -1.176921,1.369543 -1.17692,1.369535 -0.270161,0.498586 -0.270157,0.498587 -0.128495,0.678036 -0.128494,0.678029 0.116772,0.604427 0.116774,0.604435 0.22483,0.486338 0.224829,0.486338 0.575566,0.582321 0.575567,0.58232 0.658406,0.310082 0.658404,0.310089 0.866162,0.04925 0.866161,0.04925 0.657883,-0.183004 0.657884,-0.182995 2.415659,-1.175712 2.415658,-1.175712 1.770012,-1.017849 1.770012,-1.017858 2.271902,-1.46316 2.271901,-1.46316 0.03673,0.03512 0.03673,0.03512 -0.219687,3.928167 -0.219687,3.928174 -0.0049,0.0195 -0.005,0.0195 -0.59952,0.0613 -0.59952,0.0613 -1.59872,0.17043 -1.59872,0.17043 -2.112595,0.32739 -2.112595,0.32739 -2.292011,0.4856 -2.292011,0.48561 -2.161567,0.59542 -2.161567,0.59543 -1.827109,0.59694 -1.827109,0.59694 -1.712915,0.65765 -1.712914,0.65765 -1.19904,0.50807 -1.19904,0.50806 -2.22679,1.06966 -2.226789,1.06967 -1.41938,0.78025 -1.41938,0.78027 -0.06515,-0.004 -0.06515,-0.004 z m 40.4953,-3.78556 -0.201526,-0.141 0.522899,-9.720403 0.522898,-9.720408 -5.71e-4,-0.519798 -5.71e-4,-0.519806 -1.341783,0.989272 -1.341784,0.989271 -1.9984,1.396833 -1.9984,1.396825 -1.926142,1.230676 -1.926141,1.230668 -1.899369,1.088942 -1.899367,1.088934 -2.177052,1.041879 -2.17705,1.041878 -0.263081,-0.03754 -0.263081,-0.03754 1.126897,-0.729882 1.126898,-0.729883 1.256137,-0.959724 1.256137,-0.959733 1.43499,-1.369886 1.43499,-1.369877 0.954894,-1.14731 0.954894,-1.147309 0.818762,-1.201949 0.818763,-1.201939 0.585656,-1.04315 0.585658,-1.043149 0.51309,-1.171833 0.51309,-1.171832 0.451972,-1.352771 0.451973,-1.352779 0.229448,-1.130755 0.229448,-1.130755 0.05874,-0.419409 0.05874,-0.419408 -0.166506,0.06112 -0.166505,0.06112 -1.512319,1.02387 -1.512318,1.023877 -1.205744,0.770609 -1.205742,0.770617 -2.048795,1.182116 -2.048795,1.182108 -2.21838,1.069453 -2.21838,1.069461 h -0.208249 -0.208249 l 0.0029,-0.08194 0.0029,-0.08194 0.53948,-0.351902 0.539478,-0.351895 1.216321,-0.905896 1.21632,-0.905905 1.344338,-1.146089 1.344339,-1.146089 1.249993,-1.311209 1.249994,-1.311209 1.0044,-1.275123 1.0044,-1.275114 0.770008,-1.238034 0.770009,-1.238043 0.496814,-1.020558 0.496815,-1.020558 0.452789,-1.274061 0.452789,-1.274062 0.221932,-1.038049 0.221933,-1.038041 0.08126,-0.901457 0.08126,-0.901457 h -0.129862 -0.129862 l -1.055374,0.730878 -1.055376,0.730877 -1.998401,1.275951 -1.998399,1.275943 -1.42743,0.819469 -1.427428,0.819479 -1.48767,0.767339 -1.48767,0.76734 -1.126931,0.503896 -1.126932,0.503903 h -0.147871 -0.147872 l -0.06149,-0.0952 -0.06149,-0.0952 1.282338,-0.932869 1.282338,-0.932869 1.140531,-0.911431 1.140528,-0.911432 1.644913,-1.529746 1.644912,-1.529746 1.306292,-1.420478 1.306292,-1.420486 1.170655,-1.475111 1.170656,-1.475113 0.7995,-1.14731 0.799499,-1.147311 0.779528,-1.256578 0.779528,-1.256578 0.998764,-1.912183 0.998764,-1.912185 0.74153,-1.802916 0.741531,-1.802916 0.415885,-1.241433 0.415883,-1.241432 0.33779,-1.323616 0.33779,-1.323616 v -0.197863 -0.197804 l 0.21292,0.109034 0.21292,0.109035 1.57835,2.435283 1.57834,2.435282 1.74064,2.638163 1.74065,2.638163 1.73669,2.552051 1.73669,2.552051 1.6052,2.239987 1.60521,2.239985 1.58538,2.106549 1.58539,2.106557 1.423,1.753936 1.423,1.753936 0.85207,0.985057 0.85208,0.985067 v 0.254907 0.254908 l -0.17945,0.171708 -0.17945,0.171708 h -0.17155 -0.17154 l -1.74636,-0.821502 -1.74636,-0.821501 -1.75671,-0.963913 -1.7567,-0.963922 -1.48453,-0.905746 -1.48452,-0.905738 -1.9725,-1.324427 -1.9725,-1.324427 -0.24354,-0.161216 -0.24353,-0.161223 0.15092,0.270492 0.15093,0.270484 2.15451,3.15821 2.15452,3.15821 1.78594,2.469078 1.78595,2.46907 1.35567,1.773124 1.35566,1.773116 1.17559,1.450276 1.17559,1.450276 0.93767,1.085129 0.93768,1.08513 -0.0342,0.333383 -0.0342,0.333366 -0.29761,0.0995 -0.2976,0.09949 -1.87218,-0.879719 -1.87209,-0.879719 -1.65582,-0.913371 -1.65582,-0.91338 -1.51707,-0.92684 -1.51707,-0.92685 -2.13714,-1.435301 -2.13715,-1.43531 -0.0347,0.02985 -0.0347,0.02985 1.28095,1.897175 1.28094,1.897175 1.48467,2.130721 1.48467,2.130712 1.31356,1.802922 1.31357,1.802914 1.20252,1.584377 1.20252,1.584385 1.27742,1.584384 1.27741,1.584377 0.98389,1.146315 0.98387,1.146314 v 0.279631 0.279623 l -0.13704,0.131124 -0.13703,0.131124 h -0.25118 -0.25119 l -2.1526,-1.031979 -2.15261,-1.031979 -1.89936,-1.088583 -1.89937,-1.088583 -1.92614,-1.231203 -1.92615,-1.231203 -1.65581,-1.144952 -1.65582,-1.14496 -1.46791,-1.083734 -1.4679,-1.083741 -0.15453,-0.05677 -0.15454,-0.05677 0.0621,0.911381 0.0621,0.911373 0.49229,9.178486 0.4923,9.178475 -0.17721,0.19122 -0.17719,0.19122 h -2.81534 -2.815332 z M 40.870501,93.854757 v -0.273168 l 0.05759,0.136584 0.0576,0.136584 -0.0576,0.136584 -0.05759,0.136584 z m 119.789839,0 v -0.273168 l 0.0576,0.136584 0.0576,0.136584 -0.0576,0.136584 -0.0576,0.136584 z M 40.870501,51.895976 v -0.273169 l 0.05759,0.136584 0.0576,0.136585 -0.0576,0.136585 -0.05759,0.136585 z m 119.789839,0 v -0.273169 l 0.0576,0.136584 0.0576,0.136585 -0.0576,0.136585 -0.0576,0.136585 z m -60.34118,-41.601715 0.48532,-0.04183 0.48533,0.04183 0.48532,0.04183 h -0.97065 -0.970649 z"
         id="path7879" /><path
         style="fill:#a3a3a3;fill-opacity:1;stroke-width:0.111704"
         d="m 52.485723,106.12005 -0.156725,-0.19122 0.19984,0.14997 0.19984,0.14996 v 0.0412 0.0412 h -0.04312 -0.04311 z m 96.565857,-0.0273 0.20669,-0.21854 h 0.0571 0.0571 l -0.20669,0.21854 -0.20669,0.21853 h -0.0571 -0.0571 z m -97.875375,-1.22926 -0.217539,-0.24586 0.256938,0.20816 0.256936,0.20815 v 0.0377 0.0377 h -0.03939 -0.03939 z m 98.960215,0.2046 v -0.0412 l 0.19984,-0.14996 0.19985,-0.14996 -0.15673,0.19121 -0.15673,0.19122 h -0.0431 -0.0431 z m -46.11223,-0.55972 0.004,-0.3278 0.0526,0.19329 0.0526,0.1933 -0.0569,0.1345 -0.0569,0.13451 0.004,-0.3278 z m -6.280692,-0.76488 0.0042,-0.3278 0.05264,0.1933 0.05264,0.1933 -0.05687,0.1345 -0.05687,0.13451 0.0042,-0.32781 z m 6.166492,-1.42047 0.004,-0.32781 0.0526,0.19329 0.0526,0.19331 -0.0569,0.1345 -0.0569,0.1345 0.004,-0.32779 z m -23.339312,0.0893 0.14988,-0.0574 0.06899,0.066 0.06899,0.0661 -0.218872,-0.009 -0.218873,-0.009 0.14988,-0.0574 z m 40.310592,0 0.14988,-0.0574 0.069,0.066 0.069,0.0661 -0.21887,-0.009 -0.21887,-0.009 0.14988,-0.0574 z m -38.94026,-0.32781 0.149879,-0.0574 0.069,0.0661 0.06899,0.0661 -0.218872,-0.009 -0.218872,-0.009 0.14988,-0.0573 z m 37.56993,0 0.14987,-0.0574 0.069,0.0661 0.069,0.0661 -0.21888,-0.009 -0.21887,-0.009 0.14989,-0.0573 z m -37.113153,-0.10927 0.14988,-0.0573 0.069,0.0661 0.06899,0.066 -0.218872,-0.009 -0.218873,-0.009 0.14988,-0.0573 z m 36.656373,0 0.14988,-0.0573 0.069,0.0661 0.069,0.066 -0.21887,-0.009 -0.21887,-0.009 0.14988,-0.0573 z m -21.196467,-0.30779 0.0042,-0.32781 0.05264,0.1933 0.05264,0.1933 -0.05687,0.13451 -0.05687,0.1345 0.0042,-0.3278 z m -14.432157,0.0892 0.149879,-0.0573 0.06899,0.0661 0.06899,0.0661 -0.218872,-0.009 -0.218873,-0.009 0.14988,-0.0574 z m 34.600874,0 0.14988,-0.0573 0.069,0.0661 0.069,0.0661 -0.21887,-0.009 -0.21887,-0.009 0.14988,-0.0574 z m -33.573126,-0.21853 0.149881,-0.0573 0.06899,0.066 0.06899,0.066 -0.218871,-0.009 -0.218873,-0.009 0.14988,-0.0573 z m 32.545376,0 0.14988,-0.0573 0.069,0.066 0.069,0.066 -0.21887,-0.009 -0.21887,-0.009 0.14988,-0.0573 z m -31.974404,-0.10926 0.14988,-0.0574 0.069,0.0661 0.06899,0.066 -0.218872,-0.009 -0.218873,-0.009 0.149881,-0.0573 z m 31.403434,0 0.14988,-0.0574 0.069,0.0661 0.069,0.066 -0.21888,-0.009 -0.21887,-0.009 0.14988,-0.0573 z m -30.832462,-0.10927 0.149879,-0.0574 0.06899,0.066 0.06899,0.0661 -0.218872,-0.009 -0.218873,-0.009 0.14988,-0.0574 z m 30.261492,0 0.14988,-0.0574 0.069,0.066 0.069,0.0661 -0.21887,-0.009 -0.21887,-0.009 0.14987,-0.0574 z m -29.576326,-0.10927 0.149879,-0.0574 0.069,0.0661 0.06899,0.0661 -0.218871,-0.009 -0.218872,-0.009 0.149879,-0.0573 z m 28.891156,0 0.14989,-0.0574 0.069,0.0661 0.069,0.0661 -0.21887,-0.009 -0.21888,-0.009 0.14988,-0.0573 z m -28.320185,-0.10927 0.14988,-0.0574 0.06899,0.0661 0.06899,0.0661 -0.218872,-0.009 -0.218872,-0.009 0.149879,-0.0574 z m 27.749215,0 0.14988,-0.0574 0.069,0.0661 0.069,0.0661 -0.21888,-0.009 -0.21887,-0.009 0.14988,-0.0574 z m -27.064049,-0.10927 0.14988,-0.0574 0.069,0.0661 0.06899,0.0661 -0.218872,-0.009 -0.218873,-0.009 0.14988,-0.0574 z m 26.378879,0 0.14989,-0.0574 0.069,0.0661 0.069,0.0661 -0.21887,-0.009 -0.21887,-0.009 0.14987,-0.0574 z m -25.693713,-0.10926 0.14988,-0.0574 0.06899,0.066 0.06899,0.0661 -0.218871,-0.009 -0.218873,-0.009 0.14988,-0.0574 z m 25.008553,0 0.14988,-0.0574 0.069,0.066 0.069,0.0661 -0.21887,-0.009 -0.21887,-0.009 0.14988,-0.0574 z m -24.209193,-0.10927 0.14988,-0.0573 0.06899,0.066 0.06899,0.0661 -0.218872,-0.009 -0.218872,-0.009 0.149879,-0.0574 z m 23.402693,0.003 0.14274,-0.0551 0.14275,0.0551 0.14274,0.0551 h -0.28549 -0.28548 z m -22.724664,-0.10927 0.142742,-0.0551 0.142744,0.0551 0.142742,0.0551 h -0.285486 -0.285485 z m 21.925314,0 0.14274,-0.0551 0.14274,0.0551 0.14274,0.0551 h -0.28548 -0.28549 z m -21.01176,-0.10927 0.142743,-0.0551 0.142743,0.0551 0.142743,0.0551 h -0.285486 -0.285486 z m 20.0982,0 0.14274,-0.0551 0.14274,0.0551 0.14275,0.0551 h -0.28549 -0.28549 z m -19.125375,-0.11262 0.202013,-0.0503 0.14057,0.0544 0.14057,0.0544 -0.342584,-0.004 -0.342582,-0.004 0.202013,-0.0503 z m 12.210325,-0.19745 0.004,-0.327799 0.0526,0.193299 0.0526,0.19329 -0.0569,0.13451 -0.0569,0.13451 0.004,-0.32781 z m 5.94657,0.19745 0.20201,-0.0503 0.14058,0.0544 0.14057,0.0544 -0.34259,-0.004 -0.34259,-0.004 0.20202,-0.0503 z m -17.13132,-0.10887 0.19984,-0.05 0.19984,0.05 0.19984,0.05 H 92.81088 92.4112 Z m 16.10357,-4.3e-4 0.20202,-0.0503 0.14057,0.0544 0.14057,0.0544 -0.34259,-0.004 -0.34259,-0.004 0.20202,-0.0503 z m -14.845259,-0.10927 0.202013,-0.0504 0.14057,0.0544 0.14057,0.0544 -0.342583,-0.004 -0.342583,-0.004 0.202013,-0.0503 z m 13.765379,8.4e-4 0.14988,-0.0574 0.069,0.0661 0.069,0.0661 -0.21887,-0.009 -0.21887,-0.009 0.14987,-0.0574 z M 94.313437,99.755163 v -0.273176 l 0.0576,0.136584 0.05759,0.136592 -0.05759,0.136584 -0.0576,0.136583 z m 3.65845,-0.273176 0.0042,-0.327798 0.05264,0.193296 0.05264,0.193296 -0.05687,0.13451 -0.05687,0.134502 0.0042,-0.327806 z m 9.363933,-1.092672 0.004,-0.327806 0.0526,0.193296 0.0526,0.193304 -0.0569,0.134502 -0.0569,0.134502 0.004,-0.327798 z m -3.65845,-0.273167 v -0.273176 l 0.0576,0.136583 0.0576,0.136593 -0.0576,0.136584 -0.0576,0.136583 z m -9.245507,-0.491706 0.0042,-0.327806 0.05264,0.193296 0.05264,0.193304 -0.05687,0.134502 -0.05687,0.134502 0.0042,-0.327798 z m 3.654218,-0.218537 0.0042,-0.327807 0.05264,0.193305 0.05264,0.193296 -0.05687,0.134502 -0.05687,0.13451 0.0042,-0.327806 z m 9.135549,-1.201949 0.004,-0.327798 0.0526,0.193296 0.0526,0.193296 -0.0569,0.134511 -0.0569,0.134502 0.004,-0.327807 z m -3.65423,-0.218529 0.004,-0.327806 0.0526,0.193296 0.0526,0.193304 -0.0569,0.134502 -0.0569,0.134502 0.004,-0.327798 z M 75.594033,95.82152 v -0.382437 l 0.05222,0.191223 0.05222,0.191214 -0.05222,0.191222 -0.05222,0.191214 z m 50.355467,-0.0546 0.004,-0.327806 0.0526,0.193304 0.0526,0.193296 -0.0569,0.134502 -0.0569,0.13451 0.004,-0.327806 z m -3.66747,-0.0091 0.009,-0.209424 0.06,0.143414 0.06,0.143407 -0.069,0.06605 -0.069,0.06605 0.009,-0.209432 z m -27.735973,-0.209424 0.0042,-0.327807 0.05264,0.193296 0.05264,0.193296 -0.05687,0.134511 -0.05687,0.134502 0.0042,-0.327798 z m 3.654218,-0.327807 0.0042,-0.327806 0.05264,0.193304 0.05264,0.193296 -0.05687,0.134502 -0.05687,0.134511 0.0042,-0.327807 z m 8.907155,-1.092679 0.004,-0.327798 0.0526,0.193296 0.0526,0.193296 -0.0569,0.13451 -0.0569,0.134502 0.004,-0.327806 z m -3.65422,-0.21853 0.004,-0.327806 0.0526,0.193296 0.0526,0.193296 -0.0569,0.13451 -0.0569,0.134502 0.004,-0.327798 z M 46.123439,93.417682 v -0.273168 l 0.0576,0.136584 0.05759,0.136584 -0.05759,0.136584 -0.0576,0.136592 z m 48.536813,-0.0546 0.0042,-0.327806 0.05264,0.193304 0.05264,0.193296 -0.05687,0.134502 -0.05687,0.13451 0.0042,-0.327806 z m 60.747138,0.0546 v -0.273168 l 0.0576,0.136584 0.0577,0.136584 -0.0577,0.136584 -0.0576,0.136592 z m -57.09292,-0.273168 0.0042,-0.327798 0.05264,0.193296 0.05264,0.193296 -0.05687,0.134502 -0.05687,0.13451 0.0042,-0.327806 z M 83.78953,93.26716 v -0.04122 l 0.199841,-0.149961 0.19984,-0.14997 -0.156725,0.191222 -0.156726,0.191223 h -0.04311 -0.04311 z m 1.884207,-1.707022 1.022986,-0.983411 h 0.0571 0.0571 l -1.022987,0.983411 -1.022987,0.983402 h -0.0571 -0.0571 z m 17.665283,0.163899 0.004,-0.327807 0.0526,0.193305 0.0526,0.193296 -0.0569,0.134502 -0.0569,0.13451 0.004,-0.327806 z m -4.910356,-0.764874 0.0042,-0.327806 0.05264,0.193304 0.05264,0.193296 -0.05687,0.134502 -0.05687,0.134511 0.0042,-0.327807 z m -11.042013,-1.147309 0.20669,-0.218538 h 0.0571 0.0571 l -0.20669,0.218538 -0.206689,0.218537 h -0.0571 -0.0571 z m 15.838179,-0.163899 0.004,-0.327807 0.0526,0.193296 0.0526,0.193296 -0.0569,0.134511 -0.0569,0.134502 0.004,-0.327798 z m -4.681972,-0.764873 0.0042,-0.327807 0.05264,0.193296 0.05264,0.193296 -0.05687,0.134511 -0.05687,0.134502 0.0042,-0.327798 z m 4.567772,-1.420486 0.004,-0.327798 0.0526,0.193296 0.0526,0.193296 -0.0569,0.134502 -0.0569,0.13451 0.004,-0.327806 z m -4.45781,-0.710235 v -0.273176 l 0.0576,0.136592 0.0576,0.136584 -0.0576,0.136584 -0.0576,0.136584 z m 4.34362,-1.365847 0.004,-0.327807 0.0526,0.193296 0.0526,0.193305 -0.0569,0.134502 -0.0569,0.134502 0.004,-0.327798 z M 75.594033,82.927987 V 82.54555 l 0.05222,0.191223 0.05222,0.191214 -0.05222,0.191223 -0.05222,0.191214 z m 50.355467,-0.0546 0.004,-0.327806 0.0526,0.193304 0.0526,0.193296 -0.0569,0.134502 -0.0569,0.134511 0.004,-0.327807 z m -3.66747,-0.0091 0.009,-0.209424 0.06,0.143406 0.06,0.143415 -0.069,0.06605 -0.069,0.06605 0.009,-0.209432 z M 83.104365,80.810678 v -0.04122 l 0.19984,-0.14997 0.19984,-0.149961 -0.156725,0.191214 -0.156726,0.191223 h -0.04311 -0.04311 z m 0.970651,-0.83289 0.206689,-0.218537 h 0.0571 0.0571 l -0.206689,0.218537 -0.206689,0.218538 h -0.0571 -0.0571 z m 1.884206,-1.693645 0.965609,-0.92878 h 0.0571 0.0571 l -0.965608,0.92878 -0.96561,0.928772 h -0.0571 -0.0571 z m 8.116811,-1.429591 0.009,-0.209424 0.05998,0.143415 0.05998,0.143406 -0.06899,0.06605 -0.06899,0.06605 0.009,-0.209433 z m -6.346799,-0.373331 0.206689,-0.21853 h 0.0571 0.0571 l -0.206689,0.21853 -0.20669,0.218537 h -0.0571 -0.0571 z m 6.460994,-0.282273 0.009,-0.209433 0.05998,0.143415 0.05998,0.143415 -0.06899,0.06605 -0.06899,0.06605 0.009,-0.209432 z m -5.947119,-0.305316 v -0.04122 l 0.199839,-0.14997 0.19984,-0.149961 -0.156724,0.191222 -0.156726,0.191214 h -0.04311 -0.04311 z m -8.730988,-5.414578 -0.0657,-0.101719 0.09702,-0.05736 0.09703,-0.05736 v 0.159091 0.1591 h -0.03132 -0.03132 z m -3.922319,-0.499255 0.0042,-0.327806 0.05264,0.193304 0.05264,0.193296 -0.05687,0.134502 -0.05687,0.13451 0.0042,-0.327806 z m 50.359698,0 0.004,-0.327806 0.0526,0.193304 0.0526,0.193296 -0.0569,0.134502 -0.0569,0.13451 0.004,-0.327806 z m -3.66747,-0.0091 0.009,-0.209425 0.06,0.143407 0.06,0.143414 -0.069,0.06605 -0.069,0.06605 0.009,-0.209433 z M 82.99017,67.807817 v -0.04122 l 0.19984,-0.14997 0.19984,-0.149961 -0.156725,0.191222 -0.156726,0.191215 h -0.04311 -0.04311 z m 0.970652,-0.832889 0.206689,-0.218537 h 0.0571 0.0571 l -0.206689,0.218537 -0.206689,0.218538 h -0.0571 -0.0571 z m 1.256137,-1.092679 0.446032,-0.437067 h 0.0571 0.0571 l -0.446033,0.437067 -0.446031,0.437075 h -0.0571 -0.0571 z m 8.982283,-1.748276 v -0.273168 l 0.0576,0.136584 0.0576,0.136584 -0.0576,0.136584 -0.0576,0.136584 z m -6.298717,-0.819512 0.387385,-0.382436 h 0.0571 0.0571 l -0.387384,0.382436 -0.387385,0.382437 h -0.0571 -0.0571 z m 6.427542,-0.437066 0.0016,-0.546344 0.04773,0.301988 0.04773,0.301996 -0.04928,0.244348 -0.04928,0.244347 z m -5.399793,-0.642227 v -0.04122 l 0.199841,-0.149969 0.19984,-0.149962 -0.156725,0.191215 -0.156726,0.191222 h -0.04311 -0.04311 z m 0.685166,-0.764873 v -0.04122 l 0.19984,-0.149961 0.19984,-0.149961 -0.156724,0.191214 -0.156727,0.191222 h -0.04311 -0.04311 z m 0.570972,-0.655613 v -0.04122 l 0.19984,-0.149962 0.19984,-0.149961 -0.156725,0.191214 -0.156726,0.191222 h -0.04311 -0.04311 z M 46.123439,52.333047 v -0.273169 l 0.0576,0.136584 0.05759,0.136585 -0.05759,0.136585 -0.0576,0.136584 z m 109.283951,0 v -0.273169 l 0.0576,0.136584 0.0577,0.136585 -0.0577,0.136585 -0.0576,0.136584 z M 51.129958,40.927956 v -0.04125 l 0.19984,-0.149964 0.19984,-0.149964 -0.156725,0.191219 -0.156726,0.191219 h -0.04311 -0.04311 z m 99.106092,-0.149964 -0.15673,-0.191218 0.19985,0.149964 0.19984,0.149964 v 0.04125 0.04125 h -0.0431 -0.0431 z m -97.792858,-1.119993 0.20669,-0.218535 h 0.0571 0.0571 l -0.206689,0.218535 -0.20669,0.218535 h -0.0571 -0.0571 z m 96.650918,0.02732 -0.15673,-0.191218 0.19985,0.149963 0.19983,0.149965 v 0.04125 0.04125 h -0.0431 -0.0431 z m -51.372874,-1.830233 0.2682,-0.273169 h 0.0571 0.0571 l -0.2682,0.273169 -0.268201,0.273169 h -0.0571 -0.0571 z m 5.984344,-0.08195 -0.21754,-0.245852 0.25695,0.208154 0.25693,0.208153 v 0.0377 0.0377 h -0.0393 -0.0394 z m -3.10094,-1.140681 0.19984,-0.04997 0.19984,0.04997 0.19985,0.04997 h -0.39969 -0.39968 z m 0.0571,-21.304237 0.14274,-0.05511 0.14274,0.05511 0.14275,0.05512 h -0.28549 -0.28548 z"
         id="path7877" /><path
         style="fill:#000000;fill-opacity:1;stroke-width:0.111704"
         d="m 98.613379,135.30182 0.14988,-0.0573 0.06899,0.066 0.06899,0.0661 -0.218872,-0.009 -0.218873,-0.009 0.14988,-0.0574 z m 4.225191,0 0.14988,-0.0573 0.069,0.066 0.069,0.0661 -0.21888,-0.009 -0.21887,-0.009 0.14988,-0.0574 z m -3.46811,-4.96529 -1.262732,-0.0829 -1.145013,-0.22326 -1.145013,-0.22328 -1.089144,-0.33736 -1.089143,-0.33734 -1.322184,-0.62036 -1.322184,-0.62035 -15.513033,-8.57733 -15.513034,-8.57733 0.233907,-0.11842 0.233907,-0.11844 1.370332,-0.74836 1.370332,-0.74835 2.226788,-1.06343 2.226789,-1.06343 1.655818,-0.67637 1.655817,-0.67636 1.650463,-0.59875 1.650464,-0.59874 1.718268,-0.54181 1.71827,-0.54179 2.055497,-0.5355 2.055498,-0.53548 1.827108,-0.38561 1.82711,-0.38562 1.9984,-0.32539 1.9984,-0.32538 2.055498,-0.22403 2.055498,-0.22403 0.382585,-7e-5 0.382585,-6e-5 -0.0971,1.99413 -0.0971,1.99413 0.0052,0.94116 0.0052,0.94115 0.370141,0.71942 0.370143,0.71944 0.513518,0.43251 0.513521,0.43252 0.538581,0.25616 0.538581,0.25616 h 3.882601 3.88261 l 0.64496,-0.28934 0.64496,-0.28934 0.46454,-0.44449 0.46453,-0.44448 0.28622,-0.54049 0.28624,-0.54047 0.0964,-0.58827 0.0964,-0.58826 -0.0868,-1.634 -0.0868,-1.634 -0.0566,-0.88155 -0.0566,-0.88154 2.30541,0.25152 2.30541,0.25152 2.0555,0.33248 2.0555,0.33248 1.8271,0.38582 1.82711,0.38582 2.05683,0.53501 2.05681,0.53501 1.93999,0.61558 1.93997,0.61558 2.1126,0.79662 2.1126,0.79663 1.19904,0.51513 1.19903,0.51512 2.01492,0.964 2.01493,0.96401 1.35381,0.73784 1.35381,0.73784 0.23393,0.11845 0.23393,0.11844 -15.51969,8.57732 -15.51967,8.57731 -0.95791,0.46534 -0.9579,0.46533 -0.87969,0.33437 -0.87968,0.33437 -1.26195,0.31012 -1.26194,0.31011 -1.08484,0.11534 -1.08485,0.11533 -0.79936,0.0388 -0.79936,0.0388 -1.262726,-0.0829 z m 4.65373,-26.37451 0.004,-0.32781 0.0526,0.19329 0.0526,0.19331 -0.0569,0.1345 -0.0569,0.1345 0.004,-0.32779 z m -6.280692,-0.76488 0.0042,-0.3278 0.05264,0.19329 0.05264,0.19331 -0.05687,0.1345 -0.05687,0.1345 0.0042,-0.3278 z m 6.162262,-1.36585 v -0.27316 l 0.0576,0.13658 0.0576,0.13658 -0.0576,0.13659 -0.0576,0.13658 z m -6.048067,-0.71024 0.0042,-0.3278 0.05264,0.1933 0.05264,0.1933 -0.05687,0.13451 -0.05687,0.1345 0.0042,-0.32781 z m 5.938097,-1.420476 0.004,-0.327798 0.0526,0.193296 0.0526,0.193296 -0.0569,0.134502 -0.0569,0.13451 0.004,-0.327806 z m -5.823903,-0.764873 0.0042,-0.327806 0.05264,0.193304 0.05264,0.193296 -0.05687,0.134502 -0.05687,0.134511 0.0042,-0.327807 z m 9.363933,0 0.004,-0.327806 0.0526,0.193304 0.0526,0.193296 -0.0569,0.134502 -0.0569,0.134511 0.004,-0.327807 z m -12.903957,-0.764873 0.0042,-0.327806 0.05264,0.193304 0.05264,0.193296 -0.05687,0.134502 -0.05687,0.13451 0.0042,-0.327806 z m 9.249737,-0.546336 0.004,-0.327806 0.0526,0.193296 0.0526,0.193304 -0.0569,0.134502 -0.0569,0.134502 0.004,-0.327798 z m -5.595519,-0.764873 0.0042,-0.327806 0.05264,0.193296 0.05264,0.193296 -0.05687,0.13451 -0.05687,0.134502 0.0042,-0.327798 z m 9.135549,-0.109268 0.004,-0.327807 0.0526,0.193296 0.0526,0.193305 -0.0569,0.134502 -0.0569,0.134502 0.004,-0.327798 z m -27.881302,-0.702418 -0.11857,-0.211991 v -0.102738 -0.102739 l 1.328243,-1.570222 1.328243,-1.570213 1.22286,-1.530306 1.222859,-1.530307 1.755752,-2.349258 1.755752,-2.34925 2.178661,-3.114131 2.178661,-3.114131 1.051308,-1.573273 1.051309,-1.573273 v 0.229198 0.229197 l -0.236207,1.171197 -0.236207,1.171197 -0.400824,1.265558 -0.400822,1.265558 -0.499314,1.166716 -0.499313,1.166715 -0.410025,0.77907 -0.410025,0.779078 -0.747175,1.204432 -0.747173,1.204431 -1.039603,1.321443 -1.039605,1.321442 -1.491563,1.470886 -1.491563,1.470893 -1.084845,0.871743 -1.084846,0.871742 -1.199041,0.817681 -1.19904,0.817681 -0.309659,0.153982 -0.309658,0.153983 z m 15.201497,-0.0075 v -0.273168 l 0.0576,0.136584 0.0576,0.136584 -0.0576,0.136584 -0.0576,0.136583 z m 9.025575,-0.600975 0.004,-0.327798 0.0526,0.193296 0.0526,0.193296 -0.0569,0.134511 -0.0569,0.134502 0.004,-0.327807 z M 98.196043,94.7292 v -0.273168 l 0.0576,0.136584 0.05759,0.136584 -0.05759,0.136584 -0.0576,0.136584 z m 8.911387,-0.0546 0.004,-0.327798 0.0526,0.193296 0.0526,0.193296 -0.0569,0.13451 -0.0569,0.134503 0.004,-0.327807 z m -12.447178,-0.764873 0.0042,-0.327798 0.05264,0.193296 0.05264,0.193296 -0.05687,0.134502 -0.05687,0.13451 0.0042,-0.327806 z m -48.545828,-0.118374 0.009,-0.209424 0.05998,0.143415 0.05998,0.143406 -0.06899,0.06605 -0.06899,0.06605 0.009,-0.209433 z m 109.283946,0 0.009,-0.209424 0.06,0.143415 0.06,0.143406 -0.069,0.06605 -0.069,0.06605 0.009,-0.209433 z M 40.878964,93.308764 v -0.382445 l 0.05222,0.191223 0.05222,0.191222 -0.05222,0.191214 -0.05222,0.191223 z m 62.574246,0.0546 0.004,-0.327806 0.0526,0.193304 0.0526,0.193296 -0.0569,0.134502 -0.0569,0.13451 0.004,-0.327806 z m 57.21558,-0.0546 v -0.382445 l 0.0522,0.191223 0.0522,0.191222 -0.0522,0.191214 -0.0522,0.191223 z m -62.35432,-0.710243 0.0042,-0.327806 0.05264,0.193304 0.05264,0.193296 -0.05687,0.134502 -0.05687,0.134502 0.0042,-0.327798 z m 8.67877,-0.109268 0.004,-0.327807 0.0526,0.193304 0.0526,0.193296 -0.0569,0.134502 -0.0569,0.134511 0.004,-0.327806 z m -3.65422,-1.311209 0.004,-0.327807 0.0526,0.193296 0.0526,0.193296 -0.0569,0.134511 -0.0569,0.134502 0.004,-0.327798 z m -4.914588,-0.710243 v -0.273168 l 0.0576,0.136584 0.0576,0.136584 -0.0576,0.136584 -0.0576,0.136584 z m 4.800398,-1.365847 0.004,-0.327798 0.0526,0.193296 0.0526,0.193296 -0.0569,0.134502 -0.0569,0.13451 0.004,-0.327806 z m -4.681972,-0.764874 0.0042,-0.327798 0.05264,0.193296 0.05264,0.193296 -0.05687,0.134502 -0.05687,0.134511 0.0042,-0.327807 z m 4.563542,-1.365847 v -0.273168 l 0.0576,0.136584 0.0576,0.136584 -0.0576,0.136584 -0.0576,0.136592 z m -23.684802,-0.07241 0.142743,-0.0551 0.142743,0.0551 0.142743,0.0551 h -0.285486 -0.285486 z m 0.692303,-0.0025 0.14988,-0.05736 0.06899,0.06605 0.06899,0.06605 -0.218871,-0.0086 -0.218873,-0.0086 0.14988,-0.05736 z m 41.109949,0 0.14988,-0.05736 0.069,0.06605 0.069,0.06605 -0.21887,-0.0086 -0.21888,-0.0086 0.14988,-0.05736 z m -22.566797,-0.635596 0.0042,-0.327807 0.05264,0.193296 0.05264,0.193305 -0.05687,0.134502 -0.05687,0.134502 0.0042,-0.327798 z M 79.313974,83.089436 79.1827,82.813752 l 0.270921,-0.350632 0.270922,-0.350631 1.075701,-1.251587 1.0757,-1.251588 1.965982,-2.520121 1.965983,-2.520113 1.241624,-1.693646 1.241626,-1.693653 2.288409,-3.295873 2.28841,-3.29588 0.724933,-1.074829 0.724931,-1.074829 -0.06827,1.038041 -0.06828,1.038049 -0.221481,0.947442 -0.221482,0.947442 -0.34766,0.992925 -0.347661,0.992926 -0.555344,1.190862 -0.555345,1.190861 -0.776663,1.239472 -0.776663,1.239481 -0.800468,1.038041 -0.800469,1.038041 -0.881916,0.98341 -0.881916,0.983411 -1.469608,1.368289 -1.469606,1.368288 -1.266169,0.988052 -1.266169,0.988042 -0.978393,0.675846 -0.978393,0.675838 h -0.07032 -0.07032 z m 0.337344,-9.089342 0.258268,-0.04749 0.19851,0.04975 0.198508,0.04975 -0.456777,-0.0025 -0.456778,-0.0025 0.258269,-0.04749 z m 41.909312,0 0.25827,-0.04749 0.19851,0.04975 0.1985,0.04975 -0.45677,-0.0025 -0.45678,-0.0025 0.25827,-0.04749 z M 79.29359,70.19572 79.221757,70.016604 v -0.09024 -0.09023 l 1.67782,-2.004228 1.67782,-2.004236 1.444254,-1.857553 1.444254,-1.857544 1.52331,-2.076091 1.52331,-2.076083 2.12369,-3.059494 2.123691,-3.059495 2.174171,-3.278029 2.174173,-3.27803 1.633997,-2.534023 1.634003,-2.534022 0.17336,-0.06365 0.17337,-0.06366 0.0499,0.04775 0.0499,0.04775 -0.35543,1.402619 -0.35544,1.40262 -0.408175,1.256578 -0.408171,1.256578 -0.60294,1.475113 -0.602941,1.475114 -0.655644,1.365845 -0.655646,1.365846 -0.797611,1.414315 -0.797611,1.414314 -0.743018,1.153475 -0.743021,1.153476 -0.753485,1.038043 -0.753484,1.038043 -0.736557,0.928774 -0.736556,0.928774 -1.208417,1.36563 -1.208415,1.36563 -1.656647,1.584594 -1.656646,1.584602 -1.305448,1.070899 -1.305447,1.0709 -1.342399,0.978971 -1.342397,0.978962 -0.162899,0.05978 -0.162899,0.05978 z M 40.878964,52.442314 v -0.382436 l 0.05222,0.191218 0.05222,0.191218 -0.05222,0.191219 -0.05222,0.191219 z m 119.789826,0 v -0.382436 l 0.0522,0.191218 0.0522,0.191218 -0.0522,0.191219 -0.0522,0.191219 z m -114.554366,-0.500809 0.009,-0.20943 0.05998,0.143414 0.05998,0.143413 -0.06899,0.06602 -0.06899,0.06602 0.009,-0.209429 z m 109.283946,0 0.009,-0.20943 0.06,0.143414 0.06,0.143413 -0.069,0.06602 -0.069,0.06602 0.009,-0.209429 z M 50.787375,41.255759 v -0.04125 l 0.19984,-0.149964 0.19984,-0.149964 -0.156726,0.191219 -0.156725,0.191219 h -0.04311 -0.04311 z m 47.71181,-25.820554 0.14988,-0.05739 0.06899,0.06602 0.06899,0.06602 -0.218871,-0.0086 -0.218874,-0.0086 0.149881,-0.05739 z m 4.453585,0 0.14987,-0.05739 0.069,0.06602 0.069,0.06602 -0.21887,-0.0086 -0.21887,-0.0086 0.14988,-0.05739 z m -2.974865,-0.111906 0.258265,-0.04752 0.19851,0.04972 0.19851,0.04972 -0.45678,-0.0022 -0.456774,-0.0022 z m 1.256145,0 0.25826,-0.04752 0.19851,0.04972 0.19851,0.04972 -0.45678,-0.0022 -0.45678,-0.0022 z m -2.620671,-4.914406 0.14988,-0.05739 0.06899,0.06602 0.06899,0.06602 -0.218872,-0.0086 -0.218873,-0.0086 z m 4.225191,0 0.14988,-0.05739 0.069,0.06602 0.069,0.06602 -0.21888,-0.0086 -0.21887,-0.0086 z"
         id="path7875" /><path
         style="fill:#767676;fill-opacity:1;stroke-width:0.111704"
         d="m 99.636036,130.38023 0.373174,-0.0442 0.31199,0.0453 0.31199,0.0453 -0.685165,-8.3e-4 -0.685166,-8.4e-4 0.373177,-0.0442 z m 1.712914,0 0.37318,-0.0442 0.31198,0.0453 0.312,0.0453 -0.68517,-8.3e-4 -0.68517,-8.4e-4 0.37318,-0.0442 z m -2.971097,-0.10245 0.142743,-0.0551 0.142743,0.0551 0.142743,0.0551 H 98.520596 98.23511 Z m 4.567767,0 0.14275,-0.0551 0.14274,0.0551 0.14275,0.0551 h -0.28549 -0.28549 z m -5.35999,-0.11154 0.14988,-0.0574 0.069,0.066 0.06899,0.0661 -0.218872,-0.009 -0.218873,-0.009 0.14988,-0.0574 z m 6.28069,0 0.14988,-0.0574 0.069,0.066 0.069,0.0661 -0.21886,-0.009 -0.21887,-0.009 0.14987,-0.0574 z m -55.034814,-20.44036 -0.156726,-0.19122 0.199841,0.14997 0.19984,0.14997 v 0.0412 0.0412 h -0.04311 -0.04311 z m 103.703004,0.14997 v -0.0412 l 0.19983,-0.14997 0.19984,-0.14996 -0.15672,0.19121 -0.15673,0.19122 h -0.0431 -0.0431 z m -105.18753,-1.57045 -0.156726,-0.19121 0.19984,0.14996 0.199841,0.14996 v 0.0412 0.0413 h -0.04311 -0.04311 z m 106.67205,0.14996 v -0.0412 l 0.19984,-0.14996 0.19984,-0.14996 -0.15672,0.19121 -0.15673,0.19123 h -0.0431 -0.0431 z m -58.596247,-0.3685 -0.156725,-0.19121 0.19984,0.14996 0.19984,0.14997 v 0.0412 0.0412 h -0.04311 -0.04311 z m 11.034317,-0.13658 0.20669,-0.21853 h 0.0571 0.0571 l -0.20669,0.21853 -0.20669,0.21854 h -0.0571 -0.0571 z m -11.491094,-0.30048 -0.156725,-0.19123 0.19984,0.14997 0.19984,0.14997 v 0.0412 0.0413 h -0.04311 -0.04311 z m -43.213352,-2.13072 -0.451405,-0.46439 0.485326,0.43193 0.485326,0.43193 v 0.0324 0.0324 h -0.03392 -0.03392 z m 97.984086,0.0273 0.44603,-0.43707 h 0.0571 0.0571 l -0.44604,0.43707 -0.44603,0.43707 h -0.0571 -0.0571 z m -55.63225,-0.49171 9.23e-4,-0.76487 0.04495,0.41219 0.04495,0.41219 -0.04586,0.35268 -0.04586,0.35269 9.23e-4,-0.76488 z m 13.56066,0.10017 0.009,-0.20943 0.06,0.14341 0.06,0.14341 -0.069,0.0661 -0.069,0.066 0.009,-0.20943 z m -10.035846,-0.3187 0.0042,-0.3278 0.05264,0.19329 0.05264,0.19331 -0.05687,0.1345 -0.05687,0.1345 0.0042,-0.3278 z m 53.078096,-0.31443 v -0.0412 l 0.19984,-0.14996 0.19983,-0.14996 -0.15672,0.19122 -0.15672,0.19122 h -0.0431 -0.0431 z m -43.13279,-1.10605 0.002,-0.54634 0.0477,0.30199 0.0477,0.30199 -0.0493,0.24435 -0.0493,0.24435 0.002,-0.54634 z m -3.55042,0 0.004,-0.3278 0.0526,0.19329 0.0526,0.1933 -0.0569,0.13451 -0.0569,0.1345 0.004,-0.3278 z m -9.808758,-0.71024 v -0.60097 l 0.04757,0.30048 0.04758,0.30049 -0.04758,0.30048 -0.04757,0.3005 z m 3.523834,0 v -0.27317 l 0.0576,0.13659 0.05759,0.13658 -0.05759,0.13659 -0.0576,0.13658 z m 9.722704,-1.42048 v -0.60097 l 0.0476,0.30048 0.0476,0.30049 -0.0476,0.30049 -0.0476,0.30048 z m -3.55198,0.0546 0.004,-0.32781 0.0526,0.19331 0.0526,0.1933 -0.0569,0.1345 -0.0569,0.13451 0.004,-0.32781 z m -9.583482,-0.71024 v -0.4917 l 0.04949,0.24585 0.04949,0.24585 -0.04949,0.24585 -0.04949,0.24585 z m 3.531185,-0.0546 0.0042,-0.3278 0.05264,0.1933 0.05264,0.1933 -0.05687,0.1345 -0.05687,0.13451 0.0042,-0.32781 z m -18.263234,-0.78865 0.315605,-0.04565 0.255367,0.04716 0.255367,0.04716 -0.570971,-0.0017 -0.570972,-0.0017 0.315604,-0.04565 z m 41.850651,0.0017 0.25693,-0.04732 0.25694,0.04732 0.25693,0.04732 h -0.51387 -0.51388 z M 107.33159,99.427808 V 99.15464 l 0.0576,0.136584 0.0576,0.136584 -0.0576,0.136584 -0.0576,0.136584 z m -3.5358,-0.273168 0.004,-0.327806 0.0526,0.193296 0.0526,0.193304 -0.0569,0.134502 -0.0569,0.134502 0.004,-0.327798 z m -9.363927,-0.437075 0.0042,-0.327798 0.05264,0.193296 0.05264,0.193296 -0.05687,0.13451 -0.05687,0.134502 0.0042,-0.327806 z m 29.896647,0.23898 v -0.0342 l 0.37113,-0.320934 0.37113,-0.320925 -0.3354,0.355121 -0.33539,0.355113 h -0.0357 -0.0357 z m -47.513476,-0.375564 -0.276843,-0.300483 0.314035,0.264899 0.314034,0.264899 v 0.03562 0.03562 h -0.0372 -0.03719 z m 21.15262,-0.136584 v -0.273168 l 0.0576,0.136584 0.0576,0.136584 -0.0576,0.136584 -0.0576,0.136584 z m 9.253976,-1.14731 0.004,-0.327806 0.0526,0.193304 0.0526,0.193296 -0.0569,0.134502 -0.0569,0.134511 0.004,-0.327807 z m -3.54003,-0.218537 0.004,-0.327798 0.0526,0.193296 0.0526,0.193296 -0.0569,0.13451 -0.0569,0.134502 0.004,-0.327806 z m -9.135543,-0.546336 0.0042,-0.327806 0.05264,0.193304 0.05264,0.193296 -0.05687,0.134502 -0.05687,0.134511 0.0042,-0.327807 z m 3.540024,-0.218537 0.0042,-0.327798 0.05264,0.193296 0.05264,0.193296 -0.05687,0.13451 -0.05687,0.134502 0.0042,-0.327806 z m -18.75242,-0.111903 -0.144448,-0.166541 0.04914,-0.04707 0.04915,-0.04699 0.139388,0.213563 0.139388,0.213571 h -0.04408 -0.04408 z m 27.773769,-0.980768 0.004,-0.327807 0.0526,0.193296 0.0526,0.193296 -0.0569,0.134511 -0.0569,0.134502 0.004,-0.327798 z m -27.600187,-0.0546 0.20669,-0.218538 h 0.0571 0.0571 l -0.206689,0.218538 -0.206689,0.218537 h -0.0571 -0.0571 z m 42.408617,-0.08194 -0.15672,-0.191223 0.19984,0.149962 0.19984,0.149969 v 0.04122 0.04122 h -0.0431 -0.0431 z m -18.34846,-0.191223 0.004,-0.327806 0.0526,0.193304 0.0526,0.193296 -0.0569,0.134502 -0.0569,0.134511 0.004,-0.327807 z m -23.489185,-0.382436 0.20669,-0.218538 h 0.0571 0.0571 l -0.20669,0.218538 -0.206689,0.218537 h -0.0571 -0.0571 z m 14.582037,-0.0546 0.0042,-0.327806 0.05264,0.193296 0.05264,0.193296 -0.05687,0.13451 -0.05687,0.134502 0.0042,-0.327798 z m 26.684638,-0.02734 -0.15673,-0.191214 0.19985,0.149961 0.19984,0.149961 v 0.0413 0.04122 h -0.0431 -0.0431 z m -23.144615,-0.191214 0.0042,-0.327807 0.05264,0.193296 0.05264,0.193305 -0.05687,0.134502 -0.05687,0.134502 0.0042,-0.327798 z m -17.72238,-0.20516 v -0.04122 l 0.19984,-0.149961 0.19984,-0.149961 -0.156725,0.191214 -0.156726,0.191222 h -0.04311 -0.04311 z m 0.456778,-0.546336 v -0.04122 l 0.19984,-0.14997 0.19984,-0.149961 -0.156725,0.191222 -0.156726,0.191214 h -0.04311 -0.04311 z m 26.058567,-0.450453 0.004,-0.327798 0.0526,0.193296 0.0526,0.193296 -0.0569,0.134511 -0.0569,0.134502 0.004,-0.327807 z m -3.54003,-0.218529 0.004,-0.327806 0.0526,0.193296 0.0526,0.193296 -0.0569,0.13451 -0.0569,0.134502 0.004,-0.327798 z m -22.06176,0.122647 v -0.0413 l 0.19984,-0.149962 0.19984,-0.149961 -0.156725,0.191214 -0.156726,0.191222 h -0.04311 -0.04311 z m 43.03669,-0.259231 -0.15673,-0.191222 0.19985,0.149961 0.19983,0.14997 v 0.04122 0.04122 h -0.0431 -0.0431 z M 94.770214,92.325479 v -0.273168 l 0.0576,0.136584 0.05759,0.136584 -0.05759,0.136584 -0.0576,0.136584 z m -12.921987,0.06797 v -0.04122 l 0.19984,-0.149962 0.19984,-0.149961 -0.156725,0.191214 -0.156725,0.191223 h -0.04311 -0.04311 z m 16.466243,-0.341175 0.0042,-0.327807 0.05264,0.193296 0.05264,0.193296 -0.05687,0.134511 -0.05687,0.134502 0.0042,-0.327798 z m -16.12366,-0.09633 v -0.04122 l 0.19984,-0.149969 0.19984,-0.149962 -0.156725,0.191223 -0.156726,0.191214 h -0.04311 -0.04311 z m 0.79936,-0.983411 v -0.04122 l 0.19984,-0.149962 0.19984,-0.149969 -0.156725,0.191222 -0.156726,0.191214 h -0.04311 -0.04311 z m 20.34462,-0.286545 V 90.41282 l 0.0576,0.136584 0.0576,0.136584 -0.0576,0.136584 -0.0576,0.136583 z M 83.332753,90.535474 v -0.0413 l 0.19984,-0.149961 0.19984,-0.149962 -0.156725,0.191215 -0.156725,0.191222 h -0.04311 -0.04311 z m 15.095911,-0.559721 0.0042,-0.327798 0.05264,0.193296 0.05264,0.193296 -0.05687,0.134502 -0.05687,0.13451 0.0042,-0.327806 z m -14.753328,0.122646 v -0.04122 l 0.19984,-0.149962 0.19984,-0.149969 -0.156725,0.191222 -0.156726,0.191214 h -0.04311 -0.04311 z m 0.342582,-0.437067 v -0.04122 l 0.19984,-0.14997 0.199841,-0.149961 -0.156725,0.191214 -0.156726,0.191222 h -0.04311 -0.04312 z m 19.206912,-1.106057 0.004,-0.327806 0.0526,0.193304 0.0526,0.193296 -0.0569,0.134502 -0.0569,0.134511 0.004,-0.327807 z m -18.293357,-0.09589 v -0.04122 l 0.19984,-0.149962 0.19984,-0.14997 -0.156725,0.191223 -0.156726,0.191214 h -0.04311 -0.04311 z m 13.611385,-0.668982 0.0042,-0.327806 0.05264,0.193296 0.05264,0.193304 -0.05687,0.134502 -0.05687,0.134502 0.0042,-0.327798 z m -13.040414,-0.09589 v -0.04122 l 0.199841,-0.149961 0.19984,-0.14997 -0.156725,0.191223 -0.156726,0.191214 h -0.04311 -0.04311 z m 36.116126,-0.799337 0.20201,-0.05033 0.14057,0.05443 0.14057,0.05443 -0.34258,-0.0042 -0.34259,-0.0042 0.20202,-0.05033 z m -18.50794,-0.415989 0.004,-0.327798 0.0526,0.193296 0.0526,0.193296 -0.0569,0.13451 -0.0569,0.134502 0.004,-0.327806 z M 86.644388,86.164764 v -0.04122 l 0.19984,-0.149961 0.19984,-0.14997 -0.156725,0.191223 -0.156726,0.191214 h -0.04311 -0.04311 z m -9.774463,-0.423129 -0.217539,-0.245852 0.256937,0.208153 0.256937,0.208153 v 0.03771 0.03771 h -0.03939 -0.03939 z m 21.787128,-0.02734 0.0042,-0.327798 0.05264,0.193296 0.05264,0.193296 -0.05687,0.13451 -0.05687,0.134502 0.0042,-0.327806 z m 25.956947,0.0546 0.20669,-0.218538 h 0.0571 0.057 l -0.20669,0.218538 -0.20669,0.218537 h -0.0571 -0.0571 z M 87.443748,85.072026 v -0.04122 l 0.19984,-0.149961 0.199841,-0.149962 -0.156725,0.191215 -0.156727,0.191222 h -0.04311 -0.04311 z m -7.67243,-1.563131 0.14988,-0.05736 0.06899,0.06605 0.06899,0.06605 -0.218872,-0.0086 -0.218873,-0.0086 0.14988,-0.05736 z m 41.909312,0 0.14988,-0.05736 0.069,0.06605 0.069,0.06605 -0.21887,-0.0086 -0.21887,-0.0086 0.14987,-0.05736 z m -42.346969,-0.201164 -0.144448,-0.166549 0.04914,-0.04699 0.04915,-0.04699 0.139388,0.213563 0.139388,0.213571 h -0.04408 -0.04408 z m 9.366225,0.01605 v -0.0413 l 0.19984,-0.149961 0.19984,-0.149961 -0.156725,0.191214 -0.156726,0.191222 h -0.04311 -0.04311 z m -9.363934,-0.874116 v -0.04122 l 0.19984,-0.149961 0.19984,-0.149962 -0.156724,0.191215 -0.156727,0.191222 h -0.04311 -0.04311 z m 0.628069,-0.723621 0.206689,-0.218537 h 0.0571 0.0571 l -0.206689,0.218537 -0.20669,0.218538 h -0.0571 -0.0571 z m 0.570972,-0.655604 0.206689,-0.218538 h 0.0571 0.0571 l -0.206689,0.218538 -0.20669,0.218529 h -0.0571 -0.0571 z m 0.456777,-0.546344 0.206689,-0.218529 h 0.0571 0.0571 l -0.206689,0.218529 -0.206689,0.218537 h -0.0571 -0.0571 z m 0.456777,-0.546336 0.206689,-0.218537 h 0.0571 0.0571 l -0.206689,0.218537 -0.20669,0.218538 h -0.0571 -0.0571 z m -4.62487,0.06806 v -0.0413 l 0.19984,-0.149961 0.19984,-0.149962 -0.156725,0.191215 -0.156725,0.191222 h -0.04311 -0.04311 z m 4.910356,-0.437075 v -0.04122 l 0.19984,-0.149962 0.19984,-0.149969 -0.156725,0.191222 -0.156726,0.191214 h -0.04311 -0.04311 z m 9.934905,-0.505083 0.12223,-0.218537 h 0.0571 0.0571 l -0.122231,0.218537 -0.12223,0.218538 h -0.0571 -0.0571 z m -9.478128,-0.04122 v -0.04122 l 0.19984,-0.14997 0.19984,-0.149962 -0.156725,0.191223 -0.156726,0.191214 h -0.04311 -0.04311 z m 0.342582,-0.437075 v -0.04122 l 0.19984,-0.149961 0.19984,-0.149961 -0.156724,0.191214 -0.156726,0.191222 h -0.04311 -0.04311 z M 82.875976,78.1883 v -0.04122 l 0.19984,-0.14997 0.19984,-0.149961 -0.156725,0.191222 -0.156726,0.191214 h -0.04311 -0.04311 z m 0.342583,-0.437075 v -0.04122 l 0.19984,-0.149961 0.199839,-0.149961 -0.156724,0.191214 -0.156726,0.191222 h -0.04311 -0.04311 z m 9.934905,-0.832881 0.122229,-0.218538 h 0.0571 0.0571 l -0.122231,0.218538 -0.12223,0.218538 h -0.0571 -0.0571 z m -9.249739,-0.04122 v -0.0413 l 0.19984,-0.149962 0.19984,-0.149961 -0.156725,0.191214 -0.156726,0.191223 h -0.04311 -0.04311 z m 0.342582,-0.437076 v -0.04122 l 0.19984,-0.149961 0.19984,-0.14997 -0.156724,0.191223 -0.156727,0.191214 h -0.04311 -0.04311 z m 0.342584,-0.437066 v -0.0413 l 0.19984,-0.149962 0.19984,-0.149961 -0.156725,0.191214 -0.156726,0.191223 H 84.63201 84.5889 Z m 0.913553,-1.201949 v -0.04122 l 0.199841,-0.149961 0.19984,-0.14997 -0.156725,0.191222 -0.156726,0.191215 h -0.04311 -0.04311 z m 0.570973,-0.764873 v -0.04122 l 0.19984,-0.149961 0.199839,-0.14997 -0.156724,0.191222 -0.156726,0.191214 h -0.04311 -0.04311 z m -9.264306,-1.242641 -0.156725,-0.191214 0.19984,0.149962 0.19984,0.149961 v 0.04122 0.0413 h -0.04311 -0.04311 z m 10.063665,0.149962 v -0.04122 l 0.19984,-0.149961 0.19984,-0.149961 -0.156725,0.191214 -0.156725,0.191222 h -0.04311 -0.04311 z m 0.79936,-1.092671 v -0.04122 l 0.19984,-0.149969 0.19984,-0.149962 -0.156724,0.191223 -0.156726,0.191214 h -0.04311 -0.04311 z m -8.397977,-1.495768 -0.07527,-0.116534 0.05442,-0.05209 0.05442,-0.05209 0.06762,0.168614 0.06762,0.168615 h -0.04678 -0.04677 z m -0.0524,-0.613189 v -0.11054 l 0.256937,-0.208153 0.256937,-0.208154 -0.227171,0.273168 -0.227172,0.273168 -0.02976,0.04557 -0.02976,0.04557 z m 42.808301,-0.335633 -0.15673,-0.191214 0.19984,0.149962 0.19984,0.149961 v 0.0413 0.04122 h -0.0431 -0.0431 z M 89.613441,69.119118 v -0.04122 l 0.19984,-0.149962 0.19984,-0.149969 -0.156725,0.191222 -0.156726,0.191214 h -0.04311 -0.04311 z m -9.64942,-0.286545 0.20669,-0.218538 h 0.0571 0.0571 l -0.20669,0.218538 -0.206689,0.218537 h -0.0571 -0.0571 z m 0.456778,-0.546336 0.206689,-0.218537 h 0.0571 0.0571 l -0.206689,0.218537 -0.20669,0.218529 h -0.0571 -0.0571 z m 0.39968,-0.478328 v -0.04122 l 0.19984,-0.14997 0.19984,-0.149961 -0.156724,0.191222 -0.156727,0.191215 h -0.04311 -0.04311 z m 0.456777,-0.546344 v -0.04122 l 0.19984,-0.149961 0.19984,-0.149962 -0.156725,0.191214 -0.156726,0.191223 h -0.04311 -0.04311 z m 0.456777,-0.546335 v -0.04122 l 0.19984,-0.149962 0.19984,-0.14997 -0.156725,0.191223 -0.156725,0.191214 h -0.04311 -0.04311 z m 0.342583,-0.437067 v -0.04122 l 0.199841,-0.14997 0.19984,-0.149961 -0.156725,0.191214 -0.156726,0.191222 h -0.04311 -0.04311 z m 0.456777,-0.546344 V 65.6906 l 0.19984,-0.149962 0.19984,-0.149961 -0.156724,0.191214 -0.156726,0.191223 h -0.04311 -0.04311 z m 0.342584,-0.437067 v -0.04122 l 0.19984,-0.14997 0.19984,-0.149961 -0.156725,0.191222 -0.156726,0.191215 h -0.04311 -0.04311 z m 0.342582,-0.437075 v -0.04122 l 0.19984,-0.149961 0.19984,-0.149962 -0.156725,0.191214 -0.156725,0.191223 h -0.04311 -0.04311 z m 0.342584,-0.437067 v -0.04122 l 0.19984,-0.14997 0.19984,-0.149961 -0.156725,0.191222 -0.156726,0.191215 h -0.04311 -0.04311 z m 0.342582,-0.437066 v -0.0413 l 0.19984,-0.149962 0.19984,-0.149961 -0.156725,0.191214 -0.156725,0.191223 h -0.04311 -0.04311 z m 0.342583,-0.437076 v -0.04122 l 0.19984,-0.149961 0.19984,-0.14997 -0.156724,0.191223 -0.156727,0.191214 h -0.04311 -0.04311 z m 0.570972,-0.764873 v -0.04122 l 0.19984,-0.14997 0.19984,-0.149961 -0.156725,0.191222 -0.156726,0.191215 h -0.04311 -0.04311 z m 9.09021,-0.04983 -0.05881,-0.09106 h 0.161245 0.161245 l -0.05881,0.09106 -0.05881,0.09105 h -0.04361 -0.04362 z m -8.747627,-0.387269 v -0.0413 l 0.19984,-0.149961 0.19984,-0.149962 -0.156725,0.191215 -0.156726,0.191222 h -0.04311 -0.04311 z m 0.570971,-0.764881 v -0.04122 l 0.19984,-0.149961 0.199841,-0.149961 -0.156725,0.191214 -0.156727,0.191222 h -0.04311 -0.04311 z m 0.570972,-0.764874 v -0.04122 l 0.19984,-0.149961 0.19984,-0.149962 -0.156725,0.191215 -0.156726,0.191222 h -0.04311 -0.04311 z m 0.79936,-1.092671 v -0.04122 l 0.19984,-0.149967 0.19984,-0.149963 -0.156725,0.191218 -0.156726,0.191217 h -0.04311 -0.04311 z m 1.027749,-1.420481 v -0.04125 l 0.19984,-0.149965 0.19984,-0.149963 -0.156725,0.191218 -0.156726,0.191219 h -0.04311 -0.04311 z m 7.765213,-11.322581 0.12223,-0.218535 h 0.0571 0.0571 l -0.122231,0.218535 -0.12223,0.218535 h -0.0571 -0.0571 z m 1.712914,-2.622423 0.12223,-0.218536 h 0.0571 0.0571 l -0.12223,0.218536 -0.12223,0.218535 h -0.0571 -0.0571 z m 53.199988,-3.032178 -0.15673,-0.191218 0.19984,0.149963 0.19984,0.149965 v 0.04125 0.04125 h -0.0431 -0.0431 z m -99.049004,-1.120069 0.446032,-0.437071 h 0.0571 0.0571 l -0.446031,0.437071 -0.446032,0.437071 h -0.0571 -0.0571 z m 97.915474,-0.08195 -0.39353,-0.409755 0.42822,0.376555 0.42823,0.376554 v 0.0332 0.0332 h -0.0346 -0.0347 z m -1.15036,-0.98341 -0.15673,-0.191218 0.19984,0.149963 0.19984,0.149965 v 0.04125 0.04125 h -0.0431 -0.0431 z M 47.247351,37.540659 v -0.04125 l 0.19984,-0.149964 0.19984,-0.149964 -0.156725,0.191218 -0.156726,0.19122 h -0.04311 -0.04311 z m 106.871299,-0.149964 -0.15672,-0.191218 0.19985,0.149963 0.19983,0.149964 v 0.04125 0.04125 h -0.0431 -0.0431 z M 48.731877,36.120179 v -0.04125 l 0.19984,-0.149965 0.19984,-0.149963 -0.156725,0.191218 -0.156726,0.191219 h -0.04311 -0.04311 z m 103.902253,-0.149963 -0.15672,-0.191219 0.19984,0.149963 0.19983,0.149965 v 0.04125 0.04125 h -0.0431 -0.0431 z m -53.228528,-20.642002 0.142743,-0.05511 0.142743,0.05511 0.142743,0.05512 h -0.285486 -0.285486 z m 2.512278,0 0.14274,-0.05511 0.14274,0.05511 0.14275,0.05512 h -0.28549 -0.28549 z"
         id="path7873" /><path
         style="fill:#000000;fill-opacity:1;stroke-width:0.111704"
         d="m 98.63479,135.31431 -0.285486,-0.0465 -1.027748,-0.12258 -1.027749,-0.12256 -1.313235,-0.30771 -1.313234,-0.3077 -1.141943,-0.38178 -1.141943,-0.38177 -0.989124,-0.43539 -0.989125,-0.43538 -17.852936,-9.85999 -17.852937,-9.86 -1.015743,-0.59029 -1.015742,-0.59029 -0.811367,-0.5849 -0.811366,-0.58491 -0.970651,-0.82143 -0.970653,-0.82142 -0.692212,-0.74592 -0.692213,-0.74592 -0.578004,-0.71024 -0.578005,-0.71024 -0.712194,-1.03804 -0.712194,-1.03804 -0.728581,-1.42602 -0.72858,-1.42602 L 42.178078,99.749703 41.67433,98.28013 41.439878,97.187451 41.205426,96.09478 41.057496,95.05673 40.909567,94.018689 V 72.875367 51.732075 l 0.147929,-1.038043 0.14793,-1.038043 0.234452,-1.092676 0.234452,-1.092677 0.503748,-1.469572 0.503747,-1.469572 0.728071,-1.426021 0.728071,-1.42602 0.793563,-1.147311 0.793563,-1.14731 0.722669,-0.867611 0.722669,-0.867611 0.980564,-0.935545 0.980562,-0.935545 0.86929,-0.677414 0.86929,-0.677415 1.014916,-0.643865 1.014917,-0.643866 18.25052,-10.078147 18.250522,-10.078147 0.991219,-0.436307 0.991221,-0.436308 1.133015,-0.37754 1.133014,-0.37754 1.098678,-0.266486 1.09868,-0.266485 1.137038,-0.190343 1.137039,-0.190342 h 2.683564 2.68356 l 1.13704,0.190342 1.13704,0.190343 1.09869,0.266485 1.09867,0.266486 1.19011,0.393665 1.19011,0.393665 1.31324,0.625138 1.31324,0.625136 17.75721,9.812226 17.75722,9.812224 0.57097,0.337941 0.57097,0.33794 1.27919,0.910367 1.2792,0.910366 1.12478,1.062956 1.12478,1.062954 0.72668,0.874142 0.72669,0.874141 0.79357,1.14731 0.79355,1.147311 0.72254,1.420479 0.72253,1.42048 0.51011,1.475113 0.51009,1.475113 0.23364,1.092677 0.23365,1.092676 0.14792,1.038043 0.14792,1.038043 v 21.143292 21.143289 l -0.14792,1.038041 -0.14792,1.038049 -0.23365,1.092671 -0.23364,1.09268 -0.51009,1.475116 -0.51011,1.475107 -0.72253,1.42048 -0.72254,1.42048 -0.79355,1.14731 -0.79357,1.14731 -0.72669,0.87415 -0.72668,0.87414 -1.12478,1.06295 -1.12478,1.06295 -1.2792,0.91037 -1.27919,0.91037 -0.57097,0.33816 -0.57097,0.33816 -17.75722,9.81197 -17.75721,9.81196 -1.31324,0.62518 -1.31324,0.62517 -1.19011,0.39367 -1.19011,0.39366 -1.09537,0.26569 -1.09536,0.26568 -1.08325,0.17771 -1.08326,0.17771 -2.34098,0.0376 -2.340984,0.0376 z m 4.60642,-5.01877 1.30647,-0.16387 1.10768,-0.27539 1.10767,-0.27537 0.99407,-0.36735 0.99407,-0.36735 0.73717,-0.35428 0.73718,-0.3543 16.32978,-9.01647 16.32978,-9.01646 1.76858,-0.97934 1.76858,-0.97933 0.8008,-0.53233 0.80079,-0.53231 0.90233,-0.75093 0.90232,-0.75092 0.78988,-0.8634 0.78989,-0.86339 0.79105,-1.13618 0.79105,-1.13616 0.56559,-1.10382 0.56559,-1.103814 0.39907,-1.147318 0.39906,-1.147309 0.2634,-1.14731 0.2634,-1.14731 V 72.875367 50.967201 l -0.2634,-1.14731 -0.2634,-1.147311 -0.39906,-1.14731 -0.39907,-1.14731 -0.56559,-1.103818 -0.56559,-1.103817 -0.79001,-1.13617 -0.79002,-1.136169 -0.83678,-0.902881 -0.8368,-0.902882 -0.85646,-0.714973 -0.85645,-0.714972 -1.08485,-0.691421 -1.08484,-0.691419 -17.74641,-9.799548 -17.74641,-9.799549 -0.99186,-0.476651 -0.99186,-0.476652 -1.18198,-0.393667 -1.18197,-0.393668 -1.43409,-0.29034 -1.43409,-0.290338 h -2.34099 -2.340981 l -1.434093,0.290338 -1.434095,0.29034 -1.181971,0.393668 -1.181972,0.393667 -1.011767,0.486218 -1.011768,0.486217 -17.726503,9.789996 -17.726503,9.789997 -1.084846,0.691051 -1.084845,0.691049 -0.902327,0.754813 -0.902326,0.754811 -0.788707,0.863398 -0.788706,0.863398 -0.799512,1.135593 -0.799513,1.135593 -0.560154,1.111212 -0.560153,1.111213 -0.397218,1.140491 -0.397218,1.140492 -0.263399,1.147311 -0.263398,1.14731 v 21.908166 21.908162 l 0.263398,1.14731 0.263399,1.14731 0.397218,1.140495 0.397218,1.140496 0.560153,1.11121 0.560154,1.11121 0.799513,1.13559 0.799512,1.1356 0.788706,0.86339 0.788707,0.8634 0.902326,0.75177 0.902327,0.75176 0.970651,0.63314 0.970651,0.63314 2.455178,1.34885 2.455178,1.34886 15.416232,8.51661 15.416232,8.51661 0.856457,0.41099 0.856457,0.41098 1.084846,0.38487 1.084846,0.38487 1.002033,0.23756 1.002034,0.23757 1.110561,0.14489 1.110562,0.14489 1.278836,0.0113 1.27884,0.0113 z m -6.047246,-21.3534 -0.35598,-0.0842 -0.505062,-0.23395 -0.505062,-0.23395 -0.481334,-0.45601 -0.481334,-0.45601 -0.313441,-0.6107 -0.313441,-0.61071 -0.03092,-1.09267 -0.03092,-1.09268 0.330199,-5.955082 0.330198,-5.955095 -0.0382,-0.04155 -0.0382,-0.04155 -2.487869,1.587712 -2.487869,1.587721 -1.427428,0.815975 -1.427429,0.815984 -1.59872,0.821769 -1.59872,0.821769 -1.313235,0.57763 -1.313235,0.577623 -1.027748,0.0459 -1.027749,0.0459 -0.656236,-0.236613 -0.656236,-0.236614 -0.625697,-0.54718 -0.625696,-0.54718 -0.34697,-0.674392 -0.346969,-0.674383 -0.07071,-0.724548 -0.07071,-0.724549 0.245455,-0.75055 0.245453,-0.750543 0.312214,-0.3966 0.312215,-0.3966 1.551488,-1.843381 1.551488,-1.843389 1.160626,-1.484581 1.160628,-1.484572 v -0.06756 -0.06756 l -0.770811,0.279062 -0.770812,0.279054 -0.970652,-0.0459 -0.970652,-0.0459 -0.642501,-0.294229 -0.642501,-0.294221 -0.535978,-0.548283 -0.535977,-0.548284 -0.303574,-0.624803 -0.303576,-0.624794 0.0059,-0.928781 0.0059,-0.928772 0.251265,-0.600974 0.251263,-0.600966 1.317778,-1.529754 1.317777,-1.529747 1.663974,-2.106875 1.663975,-2.106875 -0.05485,-0.05251 -0.05485,-0.05251 -0.56007,0.247099 -0.560071,0.24709 -1.087247,8.3e-5 -1.087247,8.4e-5 -0.75386,-0.355113 -0.75386,-0.355113 -0.481558,-0.499891 -0.48156,-0.499891 -0.302007,-0.620112 -0.302008,-0.620104 V 69.97983 68.99642 l 0.29755,-0.600974 0.297548,-0.600966 1.224143,-1.420486 1.224143,-1.420478 1.683334,-2.13072 1.683334,-2.13072 1.574055,-2.130716 1.574055,-2.130719 2.132389,-3.059495 2.132389,-3.059494 2.173634,-3.27803 2.173634,-3.278029 1.693114,-2.622424 1.693113,-2.622424 0.325725,-0.398572 0.325723,-0.398572 0.542082,-0.3301 0.542083,-0.3301 0.678513,-0.186631 0.678511,-0.186629 0.69183,0.0627 0.69181,0.0627 0.50685,0.172096 0.50684,0.172097 0.578,0.420601 0.578,0.420601 0.49339,0.751609 0.49339,0.751608 2.42325,3.7151 2.42324,3.715101 1.46665,2.185353 1.46666,2.185353 2.19045,3.114128 2.19046,3.114128 1.18295,1.584381 1.18294,1.584382 1.36887,1.748283 1.36887,1.748284 1.56542,1.857553 1.56541,1.857544 0.17071,0.327807 0.17071,0.327806 0.1443,0.587204 0.14432,0.587203 -0.0718,0.669375 -0.0718,0.669375 -0.34263,0.668998 -0.34262,0.668999 -0.52243,0.460778 -0.52243,0.460787 -0.64807,0.290701 -0.64807,0.290692 -1.08485,-8.4e-5 -1.08485,-8.3e-5 -0.56007,-0.24709 -0.56007,-0.247099 -0.0547,0.05234 -0.0547,0.05234 1.66059,2.10705 1.66059,2.107043 1.15375,1.342838 1.15376,1.34283 0.2797,0.405445 0.27971,0.405455 0.18918,0.708562 0.18918,0.708562 -0.0707,0.647896 -0.0708,0.647895 -0.27729,0.579554 -0.27729,0.579553 -0.53618,0.548502 -0.5362,0.548492 -0.63305,0.29637 -0.63306,0.29636 -0.97989,0.04356 -0.97988,0.04356 -0.77081,-0.279054 -0.77081,-0.279062 v 0.06764 0.06764 l 1.33423,1.703059 1.33422,1.703068 1.37789,1.623213 1.37789,1.623205 0.36715,0.507507 0.36715,0.507516 0.18874,0.708563 0.18873,0.708562 -0.0705,0.657285 -0.0705,0.657285 -0.34538,0.674358 -0.34539,0.674366 -0.6257,0.54718 -0.62569,0.54718 -0.65624,0.236614 -0.65623,0.236614 -1.02775,-0.0459 -1.02775,-0.0459 -1.31324,-0.577622 -1.31323,-0.577631 -1.59872,-0.822195 -1.59872,-0.822204 -1.54162,-0.883281 -1.54163,-0.883288 -2.27215,-1.453211 -2.27217,-1.453219 -0.042,0.04022 -0.042,0.04022 0.35304,6.381343 0.35303,6.38134 -0.0576,0.57398 -0.0576,0.57398 -0.2806,0.58644 -0.28058,0.58644 -0.42509,0.45022 -0.42507,0.45022 -0.7557,0.35618 -0.7557,0.35618 -3.54285,0.019 -3.542851,0.019 z m 6.850036,-3.52921 0.12394,-0.18811 -0.53547,-9.968816 -0.53546,-9.968818 0.0293,-0.02801 0.0293,-0.02801 2.4657,1.774462 2.46568,1.77447 1.8998,1.253477 1.8998,1.253476 1.56752,0.943262 1.56753,0.94327 1.42743,0.780391 1.42742,0.780391 1.84545,0.87145 1.84545,0.871449 h 0.1815 0.1815 l 0.22839,-0.218537 0.22839,-0.218538 -8.4e-4,-0.245852 -8.4e-4,-0.245853 -1.26239,-1.475108 -1.26248,-1.475116 -1.34553,-1.693654 -1.34552,-1.693645 -1.33431,-1.782229 -1.33431,-1.782238 -1.57899,-2.206035 -1.57898,-2.206036 -1.82996,-2.687791 -1.82996,-2.687791 -0.13462,-0.240703 -0.13463,-0.240694 1.05213,0.728386 1.05211,0.728386 1.83917,1.179809 1.83918,1.179809 1.82636,1.051644 1.82636,1.051644 2.37034,1.14328 2.37033,1.143279 h 0.17049 0.17049 l 0.22839,-0.218537 0.22838,-0.218538 v -0.246847 -0.246848 l -0.98435,-1.146315 -0.98436,-1.146315 -1.44961,-1.802914 -1.4496,-1.802914 -1.1996,-1.584385 -1.1996,-1.584384 -1.2639,-1.748276 -1.26392,-1.748284 -2.33288,-3.387299 -2.33288,-3.387299 -0.27356,-0.432786 -0.27357,-0.432777 0.73791,0.515701 0.7379,0.515709 2.45518,1.573608 2.45518,1.573616 1.65581,0.943303 1.65583,0.943312 2.29808,1.099134 2.29808,1.099135 0.27129,-0.136818 0.27128,-0.136818 0.0839,-0.12023 0.0839,-0.120222 0.002,-0.228153 0.002,-0.228152 -1.20947,-1.410863 -1.20947,-1.410862 -1.97376,-2.513157 -1.97376,-2.513157 -1.51931,-2.076082 -1.51929,-2.076089 -2.01005,-2.896703 -2.01004,-2.896703 -2.17354,-3.276919 -2.17353,-3.27692 -1.58264,-2.458523 -1.58265,-2.458522 -0.16902,-0.191218 -0.16901,-0.191219 -0.29634,0.0017 -0.29633,0.0017 -0.12122,0.08027 -0.12121,0.08027 -1.694645,2.622424 -1.694644,2.622424 -2.060936,3.11037 -2.060938,3.110371 -2.12644,3.063251 -2.126439,3.063253 -1.521775,2.076084 -1.521776,2.076082 -1.791743,2.294628 -1.791741,2.294619 -1.331866,1.558349 -1.331866,1.558349 v 0.32371 0.323717 l 0.358257,0.177269 0.358256,0.177268 2.296762,-1.100063 2.29676,-1.10007 1.655817,-0.942016 1.655819,-0.942024 2.455177,-1.57334 2.455178,-1.573332 0.724078,-0.50622 0.724079,-0.506211 -0.314425,0.477926 -0.314426,0.477927 -1.600846,2.349258 -1.600846,2.349249 -1.581328,2.21678 -1.581328,2.216779 -0.988701,1.334419 -0.988703,1.334418 -1.539791,1.966822 -1.539792,1.966821 -1.470663,1.74111 -1.470663,1.741119 0.03421,0.33156 0.03422,0.331561 0.305066,0.163063 0.305067,0.163063 2.321403,-1.104586 2.321402,-1.104585 1.921637,-1.107922 1.921636,-1.107921 1.903873,-1.217358 1.903873,-1.217366 1.012136,-0.700335 1.012137,-0.700327 -0.09154,0.146174 -0.09154,0.146182 -2.151949,3.15821 -2.151948,3.15821 -1.787969,2.469078 -1.787967,2.46907 -1.24977,1.639015 -1.24977,1.639016 -1.083388,1.348983 -1.083388,1.348975 -1.128051,1.317312 -1.128051,1.317321 v 0.305047 0.305057 l 0.253798,0.170094 0.253797,0.170103 0.174431,-0.0017 0.174431,-0.0017 2.112595,-1.017398 2.112594,-1.017398 1.712915,-0.962299 1.712915,-0.9623 2.112594,-1.336935 2.112595,-1.336935 1.884207,-1.311669 1.884206,-1.311668 1.483659,-1.098574 1.483659,-1.098574 0.01374,0.01906 0.01373,0.01906 -0.545615,10.104433 -0.545615,10.104432 0.109524,0.19582 0.109526,0.19583 3.037303,-0.0291 3.03731,-0.0291 0.12393,-0.18809 z"
         id="path7871" /></g></g></svg>
